<svg xmlns="http://www.w3.org/2000/svg">
<defs>
<font id="GothamHTF-BookCondensed" horiz-adv-x="500" >
  <font-face 
    font-family="Gotham HTF"
    font-weight="400"
    font-stretch="normal"
    units-per-em="1000"
    panose-1="2 0 5 6 3 0 0 2 0 4"
    ascent="800"
    descent="-200"
    x-height="528"
    cap-height="700"
    bbox="-23 -156 868 886"
    underline-thickness="20"
    underline-position="-113"
    unicode-range="U+000D-U+FB02"
  />
<missing-glyph 
 />
    <glyph glyph-name=".notdef" 
 />
    <glyph glyph-name="NUL" horiz-adv-x="0" 
 />
    <glyph glyph-name="NUL" horiz-adv-x="0" 
 />
    <glyph glyph-name="nonmarkingreturn" unicode="&#xd;" horiz-adv-x="163" 
 />
    <glyph glyph-name="space" unicode=" " horiz-adv-x="163" 
 />
    <glyph glyph-name="exclam" unicode="!" horiz-adv-x="200" 
d="M62 643v57h76v-57l-22 -451h-32zM60 97h81v-97h-81v97z" />
    <glyph glyph-name="quotedbl" unicode="&#x22;" horiz-adv-x="262" 
d="M165 700h69v-9l-43 -254h-26v263zM44 700h69v-9l-43 -254h-26v263z" />
    <glyph glyph-name="numbersign" unicode="#" horiz-adv-x="385" 
d="M84 183h-64l-1 58h69l18 223h-67l-1 58h73l14 178h45l-14 -178h97l14 178h46l-14 -178h66l1 -58h-72l-17 -223h69l1 -58h-74l-14 -183h-47l14 183h-95l-14 -183h-48zM231 241l17 223h-96l-18 -223h97z" />
    <glyph glyph-name="dollar" unicode="$" horiz-adv-x="347" 
d="M151 -5c-19.333 1.33301 -38 5.16602 -56 11.499s-36 14.5 -54 24.5v68c41.333 -25.333 78 -40 110 -44v279c-47.333 31.333 -80.333 64.666 -99 99.999s-28 69.333 -28 102v2c0 46.667 12 84.334 36 113.001s54.333 46 91 52v55h55v-55c32.667 -2.66699 62 -12 88 -28
v-67c-14 9.33301 -28.167 17 -42.5 23s-29.5 10 -45.5 12v-265c34.667 -23.333 63.667 -53.166 87 -89.499s35 -75.5 35 -117.5v-2c0 -50 -10.833 -89 -32.5 -117s-51.5 -45.667 -89.5 -53v-97h-55v93zM151 640c-19.333 -6.66699 -35.167 -18.5 -47.5 -35.5
s-18.5 -38.167 -18.5 -63.5v-2c0 -21.333 5.5 -43 16.5 -65s27.5 -42.667 49.5 -62v228zM205.999 61c40.667 13.333 61 48.332 61 104.999v2c0 23.333 -5.83301 46.833 -17.5 70.5s-26.167 43.834 -43.5 60.501v-238z" />
    <glyph glyph-name="percent" unicode="%" horiz-adv-x="519" 
d="M132 362c-30 0 -55.167 14.333 -75.5 43s-30.5 69.667 -30.5 123v11c0 53.333 10.167 94.333 30.5 123s45.5 43 75.5 43c29.333 0 54.166 -14.333 74.499 -43s30.5 -69.667 30.5 -123v-11c0 -53.333 -10.167 -94.333 -30.5 -123s-45.166 -43 -74.499 -43zM395 700h46
l-317 -700h-46zM387 -5c-30 0 -55 14.333 -75 43s-30 69.667 -30 123v11c0 53.333 10 94.333 30 123s45 43 75 43s55 -14.333 75 -43s30 -69.667 30 -123v-11c0 -53.333 -10 -94.333 -30 -123s-45 -43 -75 -43zM132 412c16.667 0 30.167 9.83301 40.5 29.5
s15.5 48.5 15.5 86.5v11c0 38 -5.16699 67 -15.5 87s-23.833 30 -40.5 30s-30.167 -10 -40.5 -30s-15.5 -49 -15.5 -87v-11c0 -38 5.16699 -66.833 15.5 -86.5s23.833 -29.5 40.5 -29.5zM387 44c16.667 0 30.167 10 40.5 30s15.5 49 15.5 87v11
c0 38 -5.16699 66.833 -15.5 86.5s-23.833 29.5 -40.5 29.5s-30.167 -9.83301 -40.5 -29.5s-15.5 -48.5 -15.5 -86.5v-11c0 -38 5.16699 -67 15.5 -87s23.833 -30 40.5 -30z" />
    <glyph glyph-name="ampersand" unicode="&#x26;" horiz-adv-x="416" 
d="M169 -8c-22 0 -41.8311 4.66699 -59.498 14s-33 22 -46 38s-23 34.5 -30 55.5s-10.5 43.5 -10.5 67.5v6c0 81.333 37 154.666 111 219.999c-22.667 38.667 -39.334 71 -50.001 97s-16 51.333 -16 76v6c0 17.333 3 34.333 9 51s14.5 31.334 25.5 44.001
s24.167 22.834 39.5 30.501s32.333 11.5 51 11.5c19.333 0 36.5 -3.66699 51.5 -11s27.5 -17.333 37.5 -30s17.667 -27 23 -43s8 -32.333 8 -49v-6c0 -37.333 -9.5 -70.833 -28.5 -100.5s-45.167 -59.834 -78.5 -90.501l99 -185c6 21.333 11.167 43.333 15.5 66
s8.5 48 12.5 76l53 -9c-4.66699 -38 -10.834 -72.333 -18.501 -103s-16.5 -59.667 -26.5 -87l66 -116l-50 -30l-49 92c-16 -26.667 -34.833 -48.5 -56.5 -65.5s-49.167 -25.5 -82.5 -25.5zM179.002 424c26.667 23.333 45.999 46.999 57.999 70.999s18 48.667 18 74v5
c0 21.333 -5.66699 40 -17 56s-26.666 24 -45.999 24c-20 0 -36 -8 -48 -24s-18 -35 -18 -57v-4c0 -19.333 4 -39.666 12 -60.999s21.667 -49.333 41 -84zM175.001 49.999c23.333 0 43.001 7.33105 59.001 21.998s30.667 34.334 44 59.001l-116 216
c-26.667 -24.667 -45.834 -51.667 -57.501 -81s-17.5 -58.666 -17.5 -87.999v-7c0 -34 8 -62.667 24 -86s37.333 -35 64 -35z" />
    <glyph glyph-name="quotesingle" unicode="'" horiz-adv-x="133" 
d="M44 700h69v-9l-43 -254h-26v263z" />
    <glyph glyph-name="parenleft" unicode="(" horiz-adv-x="252" 
d="M234 -138c-61.333 34 -109.333 87.5 -144 160.5s-52 161.833 -52 266.5c0 105.333 17.333 194.333 52 267s82.667 126 144 160v-49c-41.333 -34 -74.166 -82 -98.499 -144s-36.5 -140 -36.5 -234s12.167 -171.833 36.5 -233.5s57.166 -109.5 98.499 -143.5v-50v0z" />
    <glyph glyph-name="parenright" unicode=")" horiz-adv-x="252" 
d="M18 -88c42 34 75 81.833 99 143.5s36 139.5 36 233.5s-12 172 -36 234s-57 110 -99 144v49c62 -34 110.333 -87.333 145 -160s52 -161.667 52 -267c0 -104.667 -17.333 -193.5 -52 -266.5s-83 -126.5 -145 -160.5v50z" />
    <glyph glyph-name="asterisk" unicode="*" horiz-adv-x="283" 
d="M128 537l-80 -63l-25 41l93 47l-93 46l25 42l80 -63l-10 114h48l-11 -114l81 63l24 -42l-93 -46l93 -47l-24 -41l-81 63l11 -115h-48z" />
    <glyph glyph-name="plus" unicode="+" horiz-adv-x="409" 
d="M173 320h-148v64h148v167h63v-167h148v-64h-148v-167h-63v167z" />
    <glyph glyph-name="comma" unicode="," horiz-adv-x="168" 
d="M19 -87c24.667 8 41.333 19.498 50 34.498s12 32.5 10 52.5h-36v97h82v-82c0 -37.333 -7.16699 -66.166 -21.5 -86.499s-38.5 -36.166 -72.5 -47.499z" />
    <glyph glyph-name="hyphen" unicode="-" horiz-adv-x="286" 
d="M40 331h207v-62h-207v62z" />
    <glyph glyph-name="period" unicode="." horiz-adv-x="168" 
d="M43 97h82v-97h-82v97z" />
    <glyph glyph-name="slash" unicode="/" horiz-adv-x="273" 
d="M213 768h54l-218 -866h-54z" />
    <glyph glyph-name="zero" unicode="0" horiz-adv-x="378" 
d="M189 -9c-23.333 0 -44.5 6.5 -63.5 19.5s-35.167 33.5 -48.5 61.5s-23.666 64 -30.999 108s-11 96.667 -11 158v22c0 62 3.66699 115 11 159s17.666 80 30.999 108s29.5 48.667 48.5 62s40.167 20 63.5 20s44.5 -6.5 63.5 -19.5s35.167 -33.5 48.5 -61.5
s23.666 -64 30.999 -108s11 -96.667 11 -158v-22c0 -62 -3.66699 -115 -11 -159s-17.666 -80 -30.999 -108s-29.5 -48.667 -48.5 -62s-40.167 -20 -63.5 -20zM189 51c13.333 0 25.5 5.33301 36.5 16s20.333 27.5 28 50.5s13.667 52.833 18 89.5s6.5 80.667 6.5 132v21
c0 51.333 -2.16699 95.333 -6.5 132s-10.333 66.667 -18 90s-17 40.333 -28 51s-23.167 16 -36.5 16s-25.5 -5.33301 -36.5 -16s-20.5 -27.5 -28.5 -50.5s-14.167 -52.833 -18.5 -89.5s-6.5 -80.667 -6.5 -132v-21c0 -51.333 2.16699 -95.333 6.5 -132
s10.5 -66.667 18.5 -90s17.5 -40.333 28.5 -51s23.167 -16 36.5 -16z" />
    <glyph glyph-name="one" unicode="1" horiz-adv-x="218" 
d="M93 626l-72 -38v70l85 43h52v-701h-65v626z" />
    <glyph glyph-name="two" unicode="2" horiz-adv-x="327" 
d="M24 49l155.001 325.001c16.667 34 29 63.833 37 89.5s12 51.5 12 77.5c0 30 -8 54 -24 72s-37.333 27 -64 27c-20 0 -37.833 -2.83301 -53.5 -8.5s-30.834 -13.167 -45.501 -22.5v66c14 8.66699 30 15.667 48 21s37.667 8 59 8c44 0 79.167 -13.833 105.5 -41.5
s39.5 -64.834 39.5 -111.501v-4c0 -16 -1.16699 -31.333 -3.5 -46s-6 -29.667 -11 -45s-11 -31.5 -18 -48.5s-15.5 -35.5 -25.5 -55.5l-137 -288h198v-64h-272v49z" />
    <glyph glyph-name="three" unicode="3" horiz-adv-x="315" 
d="M114 -5c-21.333 0 -38.833 1.66992 -52.5 5.00293s-27.167 7.66602 -40.5 12.999v62c14 -6 27.667 -10.667 41 -14s29.666 -5 48.999 -5c14.667 0 28.834 3.33301 42.501 10s25.667 16.5 36 29.5s18.5 28.833 24.5 47.5s9 39.667 9 63v6c0 44.667 -12.333 77.667 -37 99
s-59.334 34 -104.001 38v44l131 242h-189v65h261v-51l-137 -252c18.667 -4.66699 36.667 -11.334 54 -20.001s32.333 -20.334 45 -35.001s22.834 -32.334 30.501 -53.001s11.5 -45 11.5 -73v-8c0 -32.667 -4.66699 -62.167 -14 -88.5s-21.833 -48.666 -37.5 -66.999
s-34.167 -32.5 -55.5 -42.5s-44 -15 -68 -15z" />
    <glyph glyph-name="four" unicode="4" horiz-adv-x="355" 
d="M222 152h-204v50l205 502h59v-496h56v-56h-56v-152h-60v152zM222 208v365l-148 -365h148z" />
    <glyph glyph-name="five" unicode="5" horiz-adv-x="329" 
d="M122 -6c-19.333 0 -36.001 1.83301 -50.001 5.5s-26 8.16699 -36 13.5v63c10.667 -5.33301 22.667 -10 36 -14s29 -6 47 -6c16.667 0 32.167 4 46.5 12s26.666 19.333 36.999 34s18.333 32.167 24 52.5s8.5 43.166 8.5 68.499v5c0 26 -2.66699 47.833 -8 65.5
s-12.5 32 -21.5 43s-19.5 19 -31.5 24s-24.667 7.5 -38 7.5s-24.666 -1.16699 -33.999 -3.5s-18.666 -5.5 -27.999 -9.5l-38 25l15 320h222v-63h-170l-10 -219c8 3.33301 16.333 6 25 8s19.334 3 32.001 3c19.333 0 38 -3.83301 56 -11.5s33.833 -19.5 47.5 -35.5
s24.667 -36.667 33 -62s12.5 -55.666 12.5 -90.999v-6c0 -34 -4.5 -65.167 -13.5 -93.5s-21.333 -52.5 -37 -72.5s-34.334 -35.5 -56.001 -46.5s-45.167 -16.5 -70.5 -16.5z" />
    <glyph glyph-name="six" unicode="6" horiz-adv-x="358" 
d="M183 -9c-20.667 0 -39.833 5.00684 -57.5 15.0068s-33.167 26.667 -46.5 50s-23.833 54.666 -31.5 93.999s-11.5 88.666 -11.5 147.999v28c0 70 4.5 129 13.5 177s21.333 87 37 117s34.5 51.667 56.5 65s46 20 72 20c16.667 0 30.334 -1.33301 41.001 -4
s21 -6.33398 31 -11.001v-64c-10 5.33301 -20.5 9.66602 -31.5 12.999s-24.167 5 -39.5 5c-34.667 0 -62.334 -21 -83.001 -63s-32 -104.667 -34 -188c13.333 13.333 27.833 24.166 43.5 32.499s33.5 12.5 53.5 12.5c17.333 0 34 -3.83301 50 -11.5
s30.333 -19.834 43 -36.501s22.667 -38.334 30 -65.001s11 -58.667 11 -96v-8c0 -34.667 -3.83301 -66.167 -11.5 -94.5s-18 -52.5 -31 -72.5s-28.5 -35.5 -46.5 -46.5s-37.333 -16.5 -58 -16.5zM184.001 49.0068c13.333 0 25.168 4.33301 35.501 13
s19.166 20.5 26.499 35.5s13 32.833 17 53.5s6 43.334 6 68.001v9c0 53.333 -8.5 92.166 -25.5 116.499s-36.833 36.5 -59.5 36.5c-16 0 -30.833 -4 -44.5 -12s-27.167 -18.667 -40.5 -32v-63c0 -44 2.33301 -80.333 7 -109s11 -51.667 19 -69s17.167 -29.5 27.5 -36.5
s20.833 -10.5 31.5 -10.5z" />
    <glyph glyph-name="seven" unicode="7" horiz-adv-x="309" 
d="M214 635h-187v65h250v-51l-151 -649h-64z" />
    <glyph glyph-name="eight" unicode="8" horiz-adv-x="340" 
d="M170 -9c-21.333 0 -40.998 4.5 -58.998 13.5s-33.5 21.833 -46.5 38.5s-23 36.834 -30 60.501s-10.5 49.834 -10.5 78.501v7c0 42 8.5 78.5 25.5 109.5s38.167 53.167 63.5 66.5c-24 14 -42.833 34.667 -56.5 62s-20.5 60.333 -20.5 99v6c0 28 3.5 53 10.5 75
s16.667 40.5 29 55.5s26.666 26.5 42.999 34.5s33.5 12 51.5 12s35.167 -4 51.5 -12s30.666 -19.5 42.999 -34.5s22 -33.5 29 -55.5s10.5 -47 10.5 -75v-6c0 -38.667 -7 -71.667 -21 -99s-32.667 -48 -56 -62c25.333 -13.333 46.333 -35.5 63 -66.5s25 -67.5 25 -109.5v-7
c0 -28.667 -3.5 -54.834 -10.5 -78.501s-16.833 -43.834 -29.5 -60.501s-28 -29.5 -46 -38.5s-37.667 -13.5 -59 -13.5zM170.002 389c10.667 0 20.499 3.5 29.499 10.5s16.667 16.667 23 29s11.166 26.666 14.499 42.999s5 33.833 5 52.5v4c0 40 -6.66699 71 -20 93
s-30.666 33 -51.999 33s-38.833 -11 -52.5 -33s-20.5 -53 -20.5 -93v-4c0 -18.667 1.66699 -36.167 5 -52.5s8.33301 -30.666 15 -42.999s14.334 -22 23.001 -29s18.667 -10.5 30 -10.5zM170.001 46c25.333 0 45.5 12.5 60.5 37.5s22.5 58.833 22.5 101.5v4
c0 44.667 -8 80.167 -24 106.5s-35.667 39.5 -59 39.5s-43 -13.167 -59 -39.5s-24 -61.833 -24 -106.5v-4c0 -42.667 7.5 -76.5 22.5 -101.5s35.167 -37.5 60.5 -37.5z" />
    <glyph glyph-name="nine" unicode="9" horiz-adv-x="358" 
d="M143 -5c-17.333 0 -32.498 1.66602 -45.498 4.99902s-25.167 7.66602 -36.5 12.999v64c11.333 -5.33301 23.666 -10.166 36.999 -14.499s27.666 -6.5 42.999 -6.5c34.667 0 62.167 20.333 82.5 61s31.833 101.334 34.5 182.001
c-13.333 -13.333 -27.833 -24.166 -43.5 -32.499s-33.5 -12.5 -53.5 -12.5c-17.333 0 -34 3.83301 -50 11.5s-30.333 20 -43 37s-22.667 39 -30 66s-11 59.833 -11 98.5v7c0 36 3.83301 68.5 11.5 97.5s18.167 53.667 31.5 74s29 36 47 47s37.333 16.5 58 16.5
s39.834 -5 57.501 -15s33 -26.667 46 -50s23.333 -54.833 31 -94.5s11.5 -88.834 11.5 -147.501v-28c0 -70 -4.5 -129 -13.5 -177s-21.333 -87 -37 -117s-34.334 -51.667 -56.001 -65s-45.5 -20 -71.5 -20zM174.002 310.999c15.333 0 29.8311 3.99902 43.498 11.999
s27.167 18.667 40.5 32v71c0 44 -2.33301 80.333 -7 109s-11 51.667 -19 69s-17 29.5 -27 36.5s-20.333 10.5 -31 10.5c-13.333 0 -25.166 -4.33301 -35.499 -13s-19.166 -20.667 -26.499 -36s-13 -33.666 -17 -54.999s-6 -45 -6 -71v-7c0 -28 2.33301 -52 7 -72
s10.834 -36.333 18.501 -49s16.667 -22 27 -28s21.166 -9 32.499 -9z" />
    <glyph glyph-name="colon" unicode=":" horiz-adv-x="178" 
d="M48 528h82v-97h-82v97zM48 97h82v-97h-82v97z" />
    <glyph glyph-name="semicolon" unicode=";" horiz-adv-x="178" 
d="M48 528h82v-97h-82v97zM24 -87c24.667 8 41.333 19.498 50 34.498s12 32.5 10 52.5h-36v97h82v-82c0 -37.333 -7.16699 -66.166 -21.5 -86.499s-38.5 -36.166 -72.5 -47.499z" />
    <glyph glyph-name="less" unicode="&#x3c;" horiz-adv-x="368" 
d="M33 319v66l288 201v-77l-231 -157l231 -156v-78z" />
    <glyph glyph-name="equal" unicode="=" horiz-adv-x="452" 
d="M52 489h348v-62h-348v62zM52 277h348v-62h-348v62z" />
    <glyph glyph-name="greater" unicode="&#x3e;" horiz-adv-x="368" 
d="M46 195l232 156l-232 157v78l289 -201v-66l-289 -201v77z" />
    <glyph glyph-name="question" unicode="?" horiz-adv-x="308" 
d="M96 366l5.00293 6.00098c34.667 12.667 63.167 31.167 85.5 55.5s33.5 57.166 33.5 98.499v3c0 36 -10.333 64.167 -31 84.5s-45.334 30.5 -74.001 30.5c-16.667 0 -32.334 -2.16699 -47.001 -6.5s-29.667 -11.166 -45 -20.499v61c14 7.33301 29 13.5 45 18.5
s34.667 7.5 56 7.5c22.667 0 43.834 -4.16699 63.501 -12.5s36.667 -20 51 -35s25.5 -32.833 33.5 -53.5s12 -43.334 12 -68.001v-6c0 -26 -3.33301 -49 -10 -69s-15.834 -37.833 -27.501 -53.5s-25.334 -29.167 -41.001 -40.5s-32.167 -21 -49.5 -29l-10 -145h-41z
M88.0029 97.001h81v-97h-81v97z" />
    <glyph glyph-name="at" unicode="@" horiz-adv-x="635" 
d="M299 -134c-37.333 0 -72.334 7.16211 -105.001 21.4951s-61 36 -85 65s-42.667 65.333 -56 109s-20 94.5 -20 152.5c0 64 7.33301 125.833 22 185.5s36 112.5 64 158.5s62 82.667 102 110s85.333 41 136 41c38.667 0 73.167 -8.16699 103.5 -24.5
s55.833 -38.666 76.5 -66.999s36.5 -61.5 47.5 -99.5s16.5 -78.667 16.5 -122c0 -41.333 -3.66699 -81.333 -11 -120s-17.666 -73.167 -30.999 -103.5s-29.666 -54.666 -48.999 -72.999s-41 -27.5 -65 -27.5c-28.667 0 -49.5 9.5 -62.5 28.5s-18.5 42.833 -16.5 71.5
c-14 -28 -30.333 -51.833 -49 -71.5s-40.667 -29.5 -66 -29.5c-23.333 0 -43.333 11 -60 33s-25 52 -25 90c0 40.667 4.33301 80 13 118s20.334 71.5 35.001 100.5s31.667 52.167 51 69.5s39.333 26 60 26c24 0 42 -8.66699 54 -26s20.333 -38.666 25 -63.999l14 75l55 -10
l-49 -256c-4 -21.333 -6 -43.666 -6 -66.999c0 -15.333 2.66699 -27.833 8 -37.5s14.333 -14.5 27 -14.5c16.667 0 32.167 8.83301 46.5 26.5s26.666 40.334 36.999 68.001s18.333 58.5 24 92.5s8.5 67.667 8.5 101c0 38 -4.5 74.167 -13.5 108.5s-22.5 64.333 -40.5 90
s-40.333 46 -67 61s-57.667 22.5 -93 22.5c-46.667 0 -88.167 -13.667 -124.5 -41s-66.833 -63 -91.5 -107s-43.334 -93.5 -56.001 -148.5s-19 -110.5 -19 -166.5c0 -52.667 5.83301 -99 17.5 -139s28 -73.333 49 -100s46 -46.667 75 -60s60.5 -20 94.5 -20
c30.667 0 57.5 3.66699 80.5 11s46.167 18 69.5 32l16 -25c-13.333 -8 -26.333 -15 -39 -21s-25.5 -11 -38.5 -15s-26.833 -7 -41.5 -9s-30.667 -3 -48 -3zM269.999 120.995c10 0 20.166 4.00098 30.499 12.001s20.333 18.833 30 32.5s18.5 29.667 26.5 48
s14.667 37.833 20 58.5c3.33301 16 5.83301 31.667 7.5 47s2.5 29.666 2.5 42.999c0 28 -5 50.167 -15 66.5s-22.667 24.5 -38 24.5c-20 0 -38.667 -12.667 -56 -38s-30.666 -58 -39.999 -98c-10 -40 -15 -80 -15 -120c0 -25.333 4.33301 -44.333 13 -57s20 -19 34 -19z" />
    <glyph glyph-name="A" unicode="A" horiz-adv-x="407" 
d="M168 703h70l148 -703h-66l-37 181h-162l-36 -181h-64zM273 240l-71 352l-71 -352h142z" />
    <glyph glyph-name="B" unicode="B" horiz-adv-x="379" 
d="M51 700l94 -0.000976562c28 0 54.167 -4 78.5 -12s45.333 -19.5 63 -34.5s31.5 -33.333 41.5 -55s15 -46.5 15 -74.5v-3c0 -24.667 -3.33301 -46.167 -10 -64.5s-15.5 -34.166 -26.5 -47.499s-23.833 -24.333 -38.5 -33s-30 -15.667 -46 -21
c38.667 -10.667 70 -29.167 94 -55.5s36 -63.5 36 -111.5v-3c0 -29.333 -5.33301 -55.5 -16 -78.5s-25.5 -42.333 -44.5 -58s-42.167 -27.667 -69.5 -36s-57.333 -12.5 -90 -12.5h-81v700zM139 381.999c45.333 0 79.833 11.668 103.5 35.001s35.5 56 35.5 98v2
c0 39.333 -11.833 69.666 -35.5 90.999s-55.167 32 -94.5 32h-32v-258h23zM137 60c46 0 82.5 10.833 109.5 32.5s40.5 53.5 40.5 95.5v3c0 42.667 -12.667 75.5 -38 98.5s-61 34.5 -107 34.5h-26v-264h21z" />
    <glyph glyph-name="C" unicode="C" horiz-adv-x="331" 
d="M222 -4c-26.667 0 -51.5029 7.00098 -74.5029 21.001s-43 35.167 -60 63.5s-30.333 64 -40 107s-14.5 93.833 -14.5 152.5v20c0 58.667 5.16699 109.667 15.5 153s24.333 79.166 42 107.499s38 49.333 61 63s47.5 20.5 73.5 20.5c16 0 29.167 -1.33301 39.5 -4
s21.166 -6.66699 32.499 -12v-69c-13.333 7.33301 -25.166 12.833 -35.499 16.5s-21.166 5.5 -32.499 5.5c-18 0 -34.833 -5.66699 -50.5 -17s-29.5 -28.5 -41.5 -51.5s-21.333 -52.167 -28 -87.5s-10 -77 -10 -125v-20c0 -48.667 3.33301 -90.667 10 -126
s16 -64.5 28 -87.5s25.833 -40 41.5 -51s32.5 -16.5 50.5 -16.5c12 0 23.5 1.83301 34.5 5.5s22.833 9.16699 35.5 16.5v-65c-11.333 -6.66699 -23.166 -11.667 -35.499 -15s-26.166 -5 -41.499 -5z" />
    <glyph glyph-name="D" unicode="D" horiz-adv-x="405" 
d="M51 700h91c34 0 65.167 -7.16699 93.5 -21.5s52.666 -35.833 72.999 -64.5s36 -64.167 47 -106.5s16.5 -91.5 16.5 -147.5v-20c0 -56 -5.5 -105.167 -16.5 -147.5s-26.667 -77.833 -47 -106.5s-44.666 -50.167 -72.999 -64.5s-59.5 -21.5 -93.5 -21.5h-91v700zM146 59
c46.667 0 85 22.833 115 68.5s45 116.5 45 212.5v20c0 48 -4.16699 89.667 -12.5 125s-19.666 64.5 -33.999 87.5s-31.333 40.167 -51 51.5s-40.834 17 -63.501 17h-29v-582h30z" />
    <glyph glyph-name="E" unicode="E" horiz-adv-x="326" 
d="M51 700h246v-61h-181v-256h164v-61h-164v-261h184v-61h-249v700z" />
    <glyph glyph-name="F" unicode="F" horiz-adv-x="307" 
d="M51 700h236v-61h-171v-264h154v-60h-154v-315h-65v700z" />
    <glyph glyph-name="G" unicode="G" horiz-adv-x="396" 
d="M247 -6c-29.333 0 -57.002 6.99707 -83.002 20.9971s-48.667 35.333 -68 64s-34.666 64.667 -45.999 108s-17 94.333 -17 153v20c0 57.333 5.83301 107.5 17.5 150.5s27.334 79 47.001 108s42.667 50.833 69 65.5s54.5 22 84.5 22c18.667 0 34.834 -1.83301 48.501 -5.5
s26.834 -9.16699 39.501 -16.5v-69c-15.333 9.33301 -29.833 16.333 -43.5 21s-28.167 7 -43.5 7c-20.667 0 -40.167 -5.83301 -58.5 -17.5s-34.5 -29.167 -48.5 -52.5s-25.167 -52.666 -33.5 -87.999s-12.5 -76.666 -12.5 -123.999v-22c0 -49.333 4 -92 12 -128
s19 -65.667 33 -89s30.167 -40.666 48.5 -51.999s37.833 -17 58.5 -17c7.33301 0 13.666 0.5 18.999 1.5s11.666 2.83301 18.999 5.5v250h-93v59h153v-350c-19.333 -9.33301 -36.333 -15.833 -51 -19.5s-31.667 -5.5 -51 -5.5z" />
    <glyph glyph-name="H" unicode="H" horiz-adv-x="418" 
d="M51 700h65v-318h186v318h65v-700h-65v322h-186v-322h-65v700z" />
    <glyph glyph-name="I" unicode="I" horiz-adv-x="178" 
d="M56 700h65v-700h-65v700z" />
    <glyph glyph-name="J" unicode="J" horiz-adv-x="248" 
d="M77 -5c-9.33301 0 -19.834 1 -31.501 3s-20.5 3.66699 -26.5 5v63c2.66699 -1.33301 6.5 -2.5 11.5 -3.5l15 -3c5 -1 9.83301 -1.66699 14.5 -2s8.33398 -0.5 11.001 -0.5c20 0 36.5 6.33301 49.5 19s19.5 33 19.5 61v563h64v-566c0 -46 -11.667 -80.667 -35 -104
s-54 -35 -92 -35z" />
    <glyph glyph-name="K" unicode="K" horiz-adv-x="379" 
d="M51 700h65v-369l168 369h74l-150 -311l165 -389h-72l-136 317l-49 -104v-213h-65v700z" />
    <glyph glyph-name="L" unicode="L" horiz-adv-x="288" 
d="M51 700h65v-639h163v-61h-228v700z" />
    <glyph glyph-name="M" unicode="M" horiz-adv-x="480" 
d="M51 700h72l117 -355l118 355h72v-700h-63v554l-125 -368h-4l-125 368v-554h-62v700z" />
    <glyph glyph-name="N" unicode="N" horiz-adv-x="422" 
d="M51 700h65l193 -525v525h63v-700h-61l-198 540v-540h-62v700z" />
    <glyph glyph-name="O" unicode="O" horiz-adv-x="410" 
d="M205 -9c-24.667 0 -47.5 7.33301 -68.5 22s-39.167 36.5 -54.5 65.5s-27.333 65.167 -36 108.5s-13 94 -13 152v22c0 58 4.33301 108.667 13 152s20.667 79.5 36 108.5s33.5 50.833 54.5 65.5s43.833 22 68.5 22s47.5 -7.33301 68.5 -22s39 -36.5 54 -65.5
s26.833 -65.167 35.5 -108.5s13 -94 13 -152v-22c0 -58 -4.33301 -108.667 -13 -152s-20.5 -79.5 -35.5 -108.5s-33 -50.833 -54 -65.5s-43.833 -22 -68.5 -22zM205 51c30 0 55.167 23.333 75.5 70s30.5 119.334 30.5 218.001v22c0 98.667 -10.167 171.334 -30.5 218.001
s-45.5 70 -75.5 70s-55.167 -23.333 -75.5 -70s-30.5 -119.334 -30.5 -218.001v-22c0 -98.667 10.167 -171.334 30.5 -218.001s45.5 -70 75.5 -70z" />
    <glyph glyph-name="P" unicode="P" horiz-adv-x="370" 
d="M51 700l93 0.000976562c63.333 0 113.666 -19.333 150.999 -58s56 -93.667 56 -165v-2c0 -70.667 -18.167 -125.834 -54.5 -165.501s-87.166 -60.167 -152.499 -61.5h-28v-248h-65v700zM147 307.001c44 0.666992 78.167 15.168 102.5 43.501s36.5 69.166 36.5 122.499v2
c0 54 -12.5 95 -37.5 123s-58.833 42 -101.5 42h-31v-333h31z" />
    <glyph glyph-name="Q" unicode="Q" horiz-adv-x="412" 
d="M301 42c-26.667 -34 -58.333 -51 -95 -51c-25.333 0 -48.5 7.33301 -69.5 22s-39.167 36.5 -54.5 65.5s-27.333 65.167 -36 108.5s-13 94 -13 152v22c0 58 4.33301 108.667 13 152s20.667 79.5 36 108.5s33.5 50.833 54.5 65.5s43.833 22 68.5 22s47.5 -7.33301 68.5 -22
s39 -36.5 54 -65.5s26.833 -65.167 35.5 -108.5s13 -94 13 -152v-22c0 -56 -4 -104.833 -12 -146.5s-19.333 -77.167 -34 -106.5l60 -68l-39 -37zM207.001 50c10.667 0 21.001 2.66797 31.001 8.00098s19 13.666 27 24.999l-69 79l38 36l52 -64c16.667 48.667 25 117 25 205
v22c0 98.667 -10.167 171.334 -30.5 218.001s-45.5 70 -75.5 70s-55.167 -23.333 -75.5 -70s-30.5 -119.334 -30.5 -218.001v-22c0 -50.667 2.66699 -94.167 8 -130.5s12.833 -66.333 22.5 -90s21.167 -41 34.5 -52s27.666 -16.5 42.999 -16.5z" />
    <glyph glyph-name="R" unicode="R" horiz-adv-x="387" 
d="M51 700h97.001c30.667 0 58.667 -4.5 84 -13.5s47 -22.333 65 -40s31.833 -39.667 41.5 -66s14.5 -56.833 14.5 -91.5v-3c0 -48 -9.83301 -88.333 -29.5 -121s-46.5 -56.667 -80.5 -72l123 -293h-73l-114 274c-4.66699 -1.33301 -9.33398 -2 -14.001 -2h-15h-34v-272h-65
v700zM149.001 330c42 0 75.667 13 101 39s38 64.667 38 116v3c0 53.333 -13.167 92 -39.5 116s-60.5 36 -102.5 36h-30v-310h33z" />
    <glyph glyph-name="S" unicode="S" horiz-adv-x="331" 
d="M152 -9c-21.333 0 -41.833 3 -61.5 9s-39.834 14.667 -60.501 26v71c46.667 -28.667 86.334 -43 119.001 -43c26.667 0 48.167 7.83301 64.5 23.5s24.5 37.834 24.5 66.501v2c0 12.667 -1.33301 24.667 -4 36s-7.33398 23.666 -14.001 36.999s-15.834 28.5 -27.501 45.5
s-26.5 37.167 -44.5 60.5l-56.5 75c-15 20.667 -27 39.5 -36 56.5s-15.333 33 -19 48s-5.5 31.167 -5.5 48.5v2c0 22.667 3.83301 43.5 11.5 62.5s18 35.167 31 48.5s28.5 23.833 46.5 31.5s37 11.5 57 11.5c21.333 0 40.333 -2.5 57 -7.5s33.334 -12.167 50.001 -21.5v-71
c-37.333 24.667 -71.666 37 -102.999 37c-24.667 0 -45 -8 -61 -24s-24 -37 -24 -63v-2c0 -12 1.33301 -23.333 4 -34s7.5 -22.334 14.5 -35.001s16.333 -27 28 -43s26.5 -35.333 44.5 -58c22 -27.333 40.333 -51.333 55 -72s26.5 -40.167 35.5 -58.5s15.5 -36 19.5 -53
s6 -35.167 6 -54.5v-2c0 -23.333 -3.83301 -44.666 -11.5 -63.999s-18.334 -35.833 -32.001 -49.5s-29.667 -24.167 -48 -31.5s-38.166 -11 -59.499 -11z" />
    <glyph glyph-name="T" unicode="T" horiz-adv-x="304" 
d="M119 639h-106v61h278v-61h-107v-639h-65v639z" />
    <glyph glyph-name="U" unicode="U" horiz-adv-x="411" 
d="M206 -9c-48 0 -86.168 16.833 -114.501 50.5s-42.5 81.834 -42.5 144.501v514h64v-517c0 -44 8.33301 -77 25 -99s39.334 -33 68.001 -33c28 0 50.5 11 67.5 33s25.5 55 25.5 99v517h65v-514c0 -62.667 -14.333 -110.834 -43 -144.501s-67 -50.5 -115 -50.5z" />
    <glyph glyph-name="V" unicode="V" horiz-adv-x="388" 
d="M21 700h67l107 -577l108 577h65l-141 -704h-66z" />
    <glyph glyph-name="W" unicode="W" horiz-adv-x="606" 
d="M23 700h68l83 -562l100 562h60l99 -562l84 562h66l-117 -704h-65l-98 558l-99 -558h-64z" />
    <glyph glyph-name="X" unicode="X" horiz-adv-x="366" 
d="M144 366l-117 334h69l86 -261l89 261h66l-115 -331l128 -369h-68l-100 295l-99 -295h-66z" />
    <glyph glyph-name="Y" unicode="Y" horiz-adv-x="360" 
d="M148 295l-142 405h69l106 -321l107 321h66l-141 -405v-295h-65v295z" />
    <glyph glyph-name="Z" unicode="Z" horiz-adv-x="337" 
d="M28 45l213 597h-203v58h273v-44l-213 -597h213v-59h-283v45z" />
    <glyph glyph-name="bracketleft" unicode="[" horiz-adv-x="262" 
d="M74 700h154v-47h-96v-736h96v-47h-154v830z" />
    <glyph glyph-name="backslash" unicode="\" horiz-adv-x="273" 
d="M6 768h54l218 -866h-54z" />
    <glyph glyph-name="bracketright" unicode="]" horiz-adv-x="262" 
d="M34 -83h96v736h-96v47h154v-830h-154v47z" />
    <glyph glyph-name="asciicircum" unicode="^" horiz-adv-x="354" 
d="M151 688h51l71 -163h-49l-48 110l-48 -110h-47z" />
    <glyph glyph-name="underscore" unicode="_" horiz-adv-x="452" 
d="M-2 -106h456v-50h-456v50z" />
    <glyph glyph-name="grave" unicode="`" 
d="M178 703l60 32l76 -145h-40z" />
    <glyph glyph-name="a" unicode="a" horiz-adv-x="346" 
d="M139 -9c-16.667 0 -32.0029 4 -46.0029 12s-26.167 19.167 -36.5 33.5s-18.333 31.333 -24 51s-8.5 41.167 -8.5 64.5v10c0 52 11.667 93.167 35 123.5s56 45.5 98 45.5c16.667 0 31.834 -2 45.501 -6s26.5 -8.66699 38.5 -14v57c0 34 -7.83301 60.333 -23.5 79
s-39.167 28 -70.5 28c-17.333 0 -33.666 -2 -48.999 -6s-30.666 -10 -45.999 -18v60c15.333 7.33301 31.333 13 48 17s35 6 55 6c46 0 82.167 -13.667 108.5 -41s39.5 -67 39.5 -119v-374h-63v71c-10.667 -25.333 -24.167 -45 -40.5 -59s-36.5 -21 -60.5 -21zM156.997 45
c12.667 0 24.168 3 34.501 9s19.166 14.333 26.499 25s13 22.667 17 36s6 27.666 6 42.999v101c-11.333 5.33301 -23.166 9.83301 -35.499 13.5s-24.833 5.5 -37.5 5.5c-27.333 0 -48 -10.167 -62 -30.5s-21 -47.5 -21 -81.5v-10c0 -33.333 6.16699 -60.166 18.5 -80.499
s30.166 -30.5 53.499 -30.5z" />
    <glyph glyph-name="b" unicode="b" horiz-adv-x="378" 
d="M216 -9c-13.333 0 -25.333 2.83496 -36 8.50195s-20.334 13 -29.001 22s-16.5 19.5 -23.5 31.5s-12.833 24.667 -17.5 38v-91h-62v706h62v-270c4.66699 13.333 10.5 26 17.5 38s14.833 22.667 23.5 32s18.334 16.833 29.001 22.5s22.667 8.5 36 8.5
c17.333 0 34 -5.33301 50 -16s30 -26.667 42 -48s21.5 -48.333 28.5 -81s10.5 -71 10.5 -115v-26c0 -43.333 -3.5 -81.333 -10.5 -114s-16.5 -59.834 -28.5 -81.501s-26 -37.834 -42 -48.501s-32.667 -16 -50 -16zM199 49.002c24 0 44.167 17.5 60.5 52.5
s24.5 85.5 24.5 151.5v22c0 66 -8.16699 116.5 -24.5 151.5s-36.5 52.5 -60.5 52.5c-12 0 -23.333 -4.5 -34 -13.5s-20.334 -22 -29.001 -39s-15.5 -38 -20.5 -63s-7.5 -53.5 -7.5 -85.5v-28c0 -32 2.5 -60.5 7.5 -85.5s11.833 -46 20.5 -63s18.334 -30 29.001 -39
s22 -13.5 34 -13.5z" />
    <glyph glyph-name="c" unicode="c" horiz-adv-x="282" 
d="M191 -8c-22 0 -42.667 5.33301 -62 16s-36.333 26.667 -51 48s-26.334 48.5 -35.001 81.5s-13 72.167 -13 117.5v16c0 44.667 4.5 83.5 13.5 116.5s21 60.5 36 82.5s32.167 38.333 51.5 49s39.666 16 60.999 16c26.667 0 48.667 -5.66699 66 -17v-66
c-9.33301 7.33301 -19.166 13 -29.499 17s-21.5 6 -33.5 6s-24.167 -3.83301 -36.5 -11.5s-23.333 -19.834 -33 -36.501s-17.5 -37.667 -23.5 -63s-9 -55.666 -9 -90.999v-20c0 -36 3 -66.667 9 -92s13.833 -46.166 23.5 -62.499s20.834 -28.166 33.501 -35.499
s26 -11 40 -11c10 0 20 2.16699 30 6.5s19.667 10.166 29 17.499v-63c-9.33301 -6.66699 -19.333 -11.834 -30 -15.501s-23 -5.5 -37 -5.5z" />
    <glyph glyph-name="d" unicode="d" horiz-adv-x="378" 
d="M162 -9c-17.333 0 -33.833 5.33105 -49.5 15.998s-29.5 26.667 -41.5 48s-21.5 48.333 -28.5 81s-10.5 71 -10.5 115v26c0 43.333 3.5 81.333 10.5 114s16.5 59.834 28.5 81.501s25.833 37.834 41.5 48.501s32.167 16 49.5 16c13.333 0 25.333 -2.83301 36 -8.5
s20.334 -13 29.001 -22s16.334 -19.667 23.001 -32s12.667 -24.833 18 -37.5v269h63v-706h-63v92c-5.33301 -13.333 -11.333 -26 -18 -38s-14.334 -22.667 -23.001 -32s-18.334 -16.833 -29.001 -22.5s-22.667 -8.5 -36 -8.5zM179 48.998c12 0 23.333 4.5 34 13.5
s20.334 22 29.001 39s15.5 38 20.5 63s7.5 53.5 7.5 85.5v28c0 32 -2.5 60.5 -7.5 85.5s-11.833 46 -20.5 63s-18.334 30 -29.001 39s-22 13.5 -34 13.5c-24 0 -44.167 -17.5 -60.5 -52.5s-24.5 -85.5 -24.5 -151.5v-22c0 -66 8.16699 -116.5 24.5 -151.5
s36.5 -52.5 60.5 -52.5z" />
    <glyph glyph-name="e" unicode="e" horiz-adv-x="349" 
d="M200 -8c-22.667 0 -44.334 5.5 -65.001 16.5s-38.834 27.333 -54.501 49s-28.167 48.834 -37.5 81.501s-14 70.667 -14 114v14c0 44.667 4 83.834 12 117.501s18.833 61.667 32.5 84s29.5 39.166 47.5 50.499s37 17 57 17c41.333 0 75.166 -22.333 101.499 -67
s39.5 -109 39.5 -193v-40h-228c2 -63.333 14.333 -110 37 -140s49.667 -45 81 -45c16.667 0 31.834 2.66699 45.501 8s29.167 13.666 46.5 24.999l6 -60c-19.333 -11.333 -36.666 -19.5 -51.999 -24.5s-33.666 -7.5 -54.999 -7.5zM259 288c0 28 -2 53.832 -6 77.499
s-9.5 43.834 -16.5 60.501s-15.5 29.667 -25.5 39s-21 14 -33 14c-23.333 0 -43.333 -15.667 -60 -47s-25.667 -79.333 -27 -144h168z" />
    <glyph glyph-name="f" unicode="f" horiz-adv-x="218" 
d="M66 474l-48.002 0.000976562v54h48v55c0 42 9.5 73.333 28.5 94s46.5 31 82.5 31c6 0 12.167 -0.333008 18.5 -1s11.833 -1.66699 16.5 -3v-56c-3.33301 1.33301 -7.66602 2.16602 -12.999 2.49902s-9.66602 0.5 -12.999 0.5c-38 0 -57 -24.667 -57 -74v-49h79v-54h-79
v-474h-63v474z" />
    <glyph glyph-name="g" unicode="g" horiz-adv-x="378" 
d="M169 -132c-40 0 -78.3311 6.66602 -114.998 19.999v61c18 -7.33301 37.333 -13.166 58 -17.499s38.667 -6.5 54 -6.5c33.333 0 58.666 7.83301 75.999 23.5s26 41.167 26 76.5v104c-5.33301 -13.333 -11.333 -26 -18 -38s-14.334 -22.5 -23.001 -31.5
s-18.334 -16.333 -29.001 -22s-22.667 -8.5 -36 -8.5c-17.333 0 -33.833 5.16699 -49.5 15.5s-29.5 25.833 -41.5 46.5s-21.5 46.667 -28.5 78s-10.5 68 -10.5 110v8c0 42 3.5 78.667 10.5 110s16.5 57.333 28.5 78s25.833 36.167 41.5 46.5s32.167 15.5 49.5 15.5
c13.333 0 25.333 -2.83301 36 -8.5s20.334 -13 29.001 -22s16.334 -19.667 23.001 -32s12.667 -24.833 18 -37.5v91h63v-504c0 -54 -14.333 -93.5 -43 -118.5s-68.334 -37.5 -119.001 -37.5zM179.002 86.999c11.333 0 22.5 4.16797 33.5 12.501s20.667 20.666 29 36.999
s15.166 36.333 20.499 60s8 51.167 8 82.5v7c0 30.667 -2.66699 58 -8 82s-12.166 44.333 -20.499 61s-18 29.167 -29 37.5s-22.167 12.5 -33.5 12.5c-23.333 0 -43.333 -16.5 -60 -49.5s-25 -80.833 -25 -143.5v-6c0 -63.333 8.33301 -111.333 25 -144s36.667 -49 60 -49z
" />
    <glyph glyph-name="h" unicode="h" horiz-adv-x="374" 
d="M48 706h61.999v-252c9.33301 22 22.333 41.333 39 58s38.667 25 66 25c35.333 0 63.333 -14 84 -42s31 -67 31 -117v-378h-62v367c0 37.333 -6.5 65.833 -19.5 85.5s-31.167 29.5 -54.5 29.5s-43.166 -11 -59.499 -33s-24.5 -51.333 -24.5 -88v-361h-62v706z" />
    <glyph glyph-name="i" unicode="i" horiz-adv-x="167" 
d="M51 706h65v-82h-65v82zM52 528h63v-528h-63v528z" />
    <glyph glyph-name="j" unicode="j" horiz-adv-x="173" 
d="M56 706h66v-82h-66v82zM12 -133c-7.33301 0 -13.3301 0.5 -17.9971 1.5s-9.33398 2.16699 -14.001 3.5v54c6.66699 -2.66699 12.667 -4 18 -4c24 0 40 7.5 48 22.5s12 34.5 12 58.5v525h62v-539c0 -16.667 -1.83301 -32.5 -5.5 -47.5s-9.83398 -28 -18.501 -39
s-19.834 -19.667 -33.501 -26s-30.5 -9.5 -50.5 -9.5z" />
    <glyph glyph-name="k" unicode="k" horiz-adv-x="336" 
d="M48 706h62v-446l131 268h68l-110 -213l117 -315h-69l-90 252l-47 -89v-163h-62v706z" />
    <glyph glyph-name="l" unicode="l" horiz-adv-x="167" 
d="M52 706h63v-706h-63v706z" />
    <glyph glyph-name="m" unicode="m" horiz-adv-x="585" 
d="M48 528l61.999 -0.000976562v-73c10 22 23 41.167 39 57.5s37 24.5 63 24.5c27.333 0 48.666 -8 63.999 -24s27.333 -35.333 36 -58c4.66699 10 10.334 19.833 17.001 29.5s14.5 18.334 23.5 26.001s19.333 14 31 19s24.834 7.5 39.501 7.5c34 0 62 -13.5 84 -40.5
s33 -66.5 33 -118.5v-378h-62v369c0 37.333 -6.33301 65.5 -19 84.5s-30 28.5 -52 28.5c-23.333 0 -42.833 -10.833 -58.5 -32.5s-23.5 -50.5 -23.5 -86.5v-363h-62v369c0 37.333 -6.33301 65.5 -19 84.5s-30 28.5 -52 28.5c-23.333 0 -42.833 -10.833 -58.5 -32.5
s-23.5 -50.5 -23.5 -86.5v-363h-62v528z" />
    <glyph glyph-name="n" unicode="n" horiz-adv-x="374" 
d="M48 528h61.999v-74c9.33301 22 22.333 41.333 39 58s38.667 25 66 25c35.333 0 63.333 -14 84 -42s31 -67 31 -117v-378h-62v367c0 37.333 -6.5 65.833 -19.5 85.5s-31.167 29.5 -54.5 29.5s-43.166 -11 -59.499 -33s-24.5 -51.333 -24.5 -88v-361h-62v528z" />
    <glyph glyph-name="o" unicode="o" horiz-adv-x="366" 
d="M183 -9c-20.667 0 -40.333 6 -59 18s-35 29.333 -49 52s-25 50.334 -33 83.001s-12 70 -12 112v15c0 42 4 79.333 12 112s19 60.334 33 83.001s30.333 40 49 52s38.667 18 60 18c20.667 0 40.334 -6 59.001 -18s35 -29.333 49 -52s25 -50.334 33 -83.001s12 -70 12 -112
v-15c0 -42 -4.16699 -79.333 -12.5 -112s-19.5 -60.334 -33.5 -83.001s-30.333 -40 -49 -52s-38.334 -18 -59.001 -18zM183.001 48c12.667 0 24.5 4.83301 35.5 14.5s20.667 23.5 29 41.5s14.833 39.833 19.5 65.5s7 54.5 7 86.5v16c0 32 -2.33301 60.833 -7 86.5
s-11.167 47.5 -19.5 65.5s-18 31.667 -29 41s-22.833 14 -35.5 14s-24.5 -4.66699 -35.5 -14s-20.667 -23 -29 -41s-14.833 -39.833 -19.5 -65.5s-7 -54.5 -7 -86.5v-16c0 -32 2.33301 -60.833 7 -86.5s11.167 -47.5 19.5 -65.5s18 -31.833 29 -41.5
s22.833 -14.5 35.5 -14.5z" />
    <glyph glyph-name="p" unicode="p" horiz-adv-x="378" 
d="M48 528l62 0.00195312v-92c4.66699 13.333 10.5 26 17.5 38s14.833 22.667 23.5 32s18.334 16.833 29.001 22.5s22.667 8.5 36 8.5c17.333 0 34 -5.33301 50 -16s30 -26.667 42 -48s21.5 -48.333 28.5 -81s10.5 -71 10.5 -115v-26c0 -43.333 -3.5 -81.333 -10.5 -114
s-16.5 -59.834 -28.5 -81.501s-26 -37.834 -42 -48.501s-32.667 -16 -50 -16c-13.333 0 -25.333 2.83301 -36 8.5s-20.334 13 -29.001 22s-16.5 19.5 -23.5 31.5s-12.833 24.667 -17.5 38v-221h-62v658zM199 49.002c24 0 44.167 17.5 60.5 52.5s24.5 85.5 24.5 151.5v22
c0 66 -8.16699 116.5 -24.5 151.5s-36.5 52.5 -60.5 52.5c-12 0 -23.333 -4.5 -34 -13.5s-20.334 -22 -29.001 -39s-15.5 -38 -20.5 -63s-7.5 -53.5 -7.5 -85.5v-28c0 -32 2.5 -60.5 7.5 -85.5s11.833 -46 20.5 -63s18.334 -30 29.001 -39s22 -13.5 34 -13.5z" />
    <glyph glyph-name="q" unicode="q" horiz-adv-x="378" 
d="M268 92c-5.33301 -13.333 -11.333 -26.002 -18 -38.002s-14.334 -22.667 -23.001 -32s-18.334 -16.833 -29.001 -22.5s-22.667 -8.5 -36 -8.5c-17.333 0 -33.833 5.33301 -49.5 16s-29.5 26.667 -41.5 48s-21.5 48.333 -28.5 81s-10.5 71 -10.5 115v26
c0 43.333 3.5 81.333 10.5 114s16.5 59.834 28.5 81.501s25.833 37.834 41.5 48.501s32.167 16 49.5 16c13.333 0 25.333 -2.83301 36 -8.5s20.334 -13 29.001 -22s16.334 -19.667 23.001 -32s12.667 -24.833 18 -37.5v91h63v-658h-63v222zM179 48.998
c12 0 23.333 4.5 34 13.5s20.334 22 29.001 39s15.5 38 20.5 63s7.5 53.5 7.5 85.5v28c0 32 -2.5 60.5 -7.5 85.5s-11.833 46 -20.5 63s-18.334 30 -29.001 39s-22 13.5 -34 13.5c-24 0 -44.167 -17.5 -60.5 -52.5s-24.5 -85.5 -24.5 -151.5v-22
c0 -66 8.16699 -116.5 24.5 -151.5s36.5 -52.5 60.5 -52.5z" />
    <glyph glyph-name="r" unicode="r" horiz-adv-x="238" 
d="M48 528h61.999v-74c9.33301 23.333 23.333 43 42 59s42.334 23 71.001 21v-71h-2c-32 0 -58.5 -10.5 -79.5 -31.5s-31.5 -53.5 -31.5 -97.5v-334h-62v528z" />
    <glyph glyph-name="s" unicode="s" horiz-adv-x="280" 
d="M129 -7c-19.333 0 -37.5039 2.16699 -54.5039 6.5s-34.167 10.5 -51.5 18.5v63c18.667 -9.33301 36.834 -16.833 54.501 -22.5s34.5 -8.5 50.5 -8.5c19.333 0 35.833 6 49.5 18s20.5 28.667 20.5 50v2c0 16.667 -5.5 34 -16.5 52s-31.167 41 -60.5 69
c-18 16.667 -33.167 32.167 -45.5 46.5s-22.5 28.166 -30.5 41.499s-13.833 26.5 -17.5 39.5s-5.5 26.5 -5.5 40.5v2c0 19.333 3.33301 36.666 10 51.999s15.834 28.333 27.501 39s25.334 18.834 41.001 24.501s32.167 8.5 49.5 8.5s32.666 -1.33301 45.999 -4s27 -7 41 -13
v-63c-28.667 14.667 -57.667 22 -87 22c-19.333 0 -35.166 -5.66699 -47.499 -17s-18.5 -26.666 -18.5 -45.999v-2c0 -8 1.16699 -15.833 3.5 -23.5s6.5 -16 12.5 -25s14 -19.167 24 -30.5s22.667 -24.333 38 -39c18 -18 33.167 -34.333 45.5 -49s22.333 -28.667 30 -42
s13.334 -26.5 17.001 -39.5s5.5 -26.5 5.5 -40.5v-2c0 -20 -3.5 -37.833 -10.5 -53.5s-16.5 -29 -28.5 -40s-26 -19.5 -42 -25.5s-32.667 -9 -50 -9z" />
    <glyph glyph-name="t" unicode="t" horiz-adv-x="230" 
d="M161 -5c-28.667 0 -52.168 6.83398 -70.501 20.501s-27.5 38.167 -27.5 73.5v385h-45v54h45v145h63v-145h79v-54h-79v-370c0 -20 4.33301 -33.5 13 -40.5s20.667 -10.5 36 -10.5c10.667 0 21 1.66699 31 5v-54c-6 -2.66699 -13.167 -4.83398 -21.5 -6.50098
s-16.166 -2.5 -23.499 -2.5z" />
    <glyph glyph-name="u" unicode="u" horiz-adv-x="374" 
d="M159 -9c-35.333 0 -63.332 14 -83.999 42s-31 67 -31 117v378h62v-367c0 -37.333 6.5 -65.833 19.5 -85.5s31.167 -29.5 54.5 -29.5s43.166 11 59.499 33s24.5 51 24.5 87v362h62v-528h-62v73c-9.33301 -21.333 -22.333 -40.333 -39 -57s-38.667 -25 -66 -25z" />
    <glyph glyph-name="v" unicode="v" horiz-adv-x="352" 
d="M22 528h63l91 -425l92 425h61l-124 -531h-58z" />
    <glyph glyph-name="w" unicode="w" horiz-adv-x="531" 
d="M26 528h65l72 -413l77 413h54l75 -413l74 413h62l-104 -531h-59l-77 402l-75 -402h-60z" />
    <glyph glyph-name="x" unicode="x" horiz-adv-x="342" 
d="M134 272l-105 256h64l78 -201l78 201h63l-104 -254l111 -274h-65l-84 217l-84 -217h-63z" />
    <glyph glyph-name="y" unicode="y" horiz-adv-x="350" 
d="M145 9l-123 519h63l90 -412l91 412h62l-156 -658h-61z" />
    <glyph glyph-name="z" unicode="z" horiz-adv-x="290" 
d="M22 41l178 433h-169v54h236v-41l-177 -433h174v-54h-242v41z" />
    <glyph glyph-name="braceleft" unicode="{" horiz-adv-x="277" 
d="M254 -137c-55.333 2 -95.001 15.833 -119.001 41.5s-36 57.5 -36 95.5c0 15.333 2 29.833 6 43.5s8.16699 27.167 12.5 40.5s8.5 27.166 12.5 41.499s6 30.166 6 47.499c0 11.333 -2 22.5 -6 33.5s-10.167 20.833 -18.5 29.5s-19 15.667 -32 21s-28.833 8 -47.5 8h-12v47
h12c18.667 0 34.5 2.83301 47.5 8.5s23.667 12.834 32 21.501s14.5 18.5 18.5 29.5s6 21.833 6 32.5c0 16.667 -2 32.334 -6 47.001s-8.16699 29 -12.5 43s-8.5 28.333 -12.5 43s-6 30.667 -6 48c0 16 2.83301 31.667 8.5 47s14.834 29 27.501 41s28.667 21.833 48 29.5
s43 12.167 71 13.5v-44c-30 -1.33301 -53.5 -10 -70.5 -26s-25.5 -37 -25.5 -63c0 -16.667 2 -32 6 -46s8.16699 -27.667 12.5 -41s8.5 -27 12.5 -41s6 -29 6 -45c0 -28 -8 -53.833 -24 -77.5s-41.667 -38.5 -77 -44.5c35.333 -6 61 -20.5 77 -43.5s24 -48.5 24 -76.5
c0 -16 -2 -31 -6 -45s-8.16699 -27.667 -12.5 -41s-8.5 -27 -12.5 -41s-6 -29.333 -6 -46c0 -25.333 8.5 -46 25.5 -62s40.5 -24.667 70.5 -26v-44v0z" />
    <glyph glyph-name="bar" unicode="|" horiz-adv-x="225" 
d="M87 768h51v-866h-51v866z" />
    <glyph glyph-name="braceright" unicode="}" horiz-adv-x="278" 
d="M24 -93c30 1.33301 53.501 10.001 70.501 26.001s25.5 36.667 25.5 62c0 16.667 -2 32 -6 46s-8.16699 27.833 -12.5 41.5s-8.5 27.5 -12.5 41.5s-6 29 -6 45c0 14 2 27.5 6 40.5s10 25 18 36s18.333 20.333 31 28s28 13.167 46 16.5
c-36 6.66699 -61.833 21.334 -77.5 44.001s-23.5 48 -23.5 76c0 16 2 31 6 45s8.16699 27.667 12.5 41s8.5 27.166 12.5 41.499s6 29.833 6 46.5c0 25.333 -8.5 46 -25.5 62s-40.5 24.667 -70.5 26v44c55.333 -2.66699 95 -16.834 119 -42.501s36 -57.5 36 -95.5
c0 -15.333 -2 -29.833 -6 -43.5s-8.16699 -27.167 -12.5 -40.5s-8.5 -27.333 -12.5 -42s-6 -30.334 -6 -47.001c0 -11.333 2 -22.333 6 -33s10.167 -20.334 18.5 -29.001s19 -15.667 32 -21s28.833 -8 47.5 -8h12v-48h-12c-18.667 0 -34.5 -2.66699 -47.5 -8
s-23.667 -12.5 -32 -21.5s-14.5 -19 -18.5 -30s-6 -21.833 -6 -32.5c0 -17.333 2 -33.166 6 -47.499s8.16699 -28.5 12.5 -42.5s8.5 -28.167 12.5 -42.5s6 -30.166 6 -47.499c0 -16 -2.83301 -31.667 -8.5 -47s-14.834 -29 -27.501 -41s-28.667 -22 -48 -30
s-43 -12.333 -71 -13v44z" />
    <glyph glyph-name="asciitilde" unicode="~" horiz-adv-x="314" 
d="M206 251c-12 0 -21.833 2.33203 -29.5 6.99902s-16.167 11 -25.5 19s-16.5 13.667 -21.5 17s-10.167 5 -15.5 5c-11.333 0 -21 -15.333 -29 -46l-39 11c5.33301 28.667 13.666 49.834 24.999 63.501s23.666 20.5 36.999 20.5c12 0 21.833 -2.33301 29.5 -7
s16.167 -11 25.5 -19s16.5 -13.667 21.5 -17s10.167 -5 15.5 -5c7.33301 0 13 3.83301 17 11.5s8.33301 19.167 13 34.5l38 -10c-5.33301 -29.333 -13.666 -50.833 -24.999 -64.5s-23.666 -20.5 -36.999 -20.5z" />
    <glyph glyph-name="nonbreakingspace" unicode="&#xa0;" horiz-adv-x="163" 
 />
    <glyph glyph-name="exclamdown" unicode="&#xa1;" horiz-adv-x="200" 
d="M60 700h81v-97h-81v97zM62 57l22 451h32l22 -451v-57h-76v57z" />
    <glyph glyph-name="cent" unicode="&#xa2;" horiz-adv-x="294" 
d="M157 85c-36 12.667 -65.8311 40.502 -89.498 83.502s-35.5 100.167 -35.5 171.5v15c0 74.667 12 133.5 36 176.5s54 70.5 90 82.5v90h49v-83c10 -0.666992 20 -2.33398 30 -5.00098s18 -5.66699 24 -9v-62c-6.66699 4 -14.334 7.5 -23.001 10.5s-17.667 4.5 -27 4.5h-4
v-423h5c15.333 0 31.666 5.33301 48.999 16v-62c-18 -8.66699 -36 -13.334 -54 -14.001v-82h-50v90zM158.002 544.002c-18.667 -12.667 -33.833 -34 -45.5 -64s-17.5 -71 -17.5 -123v-21c0 -46 5.66699 -84 17 -114s26.333 -52 45 -66z" />
    <glyph glyph-name="sterling" unicode="&#xa3;" horiz-adv-x="330" 
d="M29 37l50.001 19.999v257h-52v57h52v156c0 62 16 109 48 141c27.333 26 61 39 101 39c15.333 0 27.833 -0.833008 37.5 -2.5s18.5 -4.16699 26.5 -7.5v-63c-7.33301 3.33301 -15.833 6.16602 -25.5 8.49902s-20.167 3.5 -31.5 3.5
c-24.667 0 -45.334 -8.33301 -62.001 -25c-9.33301 -9.33301 -16.5 -22.166 -21.5 -38.499s-7.5 -35.166 -7.5 -56.499v-155h119v-57h-119v-256h173v-58h-288v37z" />
    <glyph glyph-name="currency" unicode="&#xa4;" horiz-adv-x="364" 
d="M252 -6c-21.333 0 -41.834 5.16797 -61.501 15.501s-37.334 26 -53.001 47s-29.167 47.167 -40.5 78.5s-19.333 68.333 -24 111h-61v50h57c-0.666992 7.33301 -1 14.5 -1 21.5v22.5v20v25.5c0 8.33301 0.333008 16.166 1 23.499h-57v50h61
c5.33301 42 13.833 78.333 25.5 109s25.834 56.334 42.501 77.001s35 36 55 46s41 15 63 15c16 0 29.167 -1.5 39.5 -4.5s21.166 -7.16699 32.499 -12.5v-69c-13.333 7.33301 -25.166 13 -35.499 17s-21.166 6 -32.499 6c-30 0 -56.167 -15 -78.5 -45
s-37.5 -76.333 -45.5 -139h143v-50h-147c-0.666992 -7.33301 -1.16699 -15 -1.5 -23s-0.5 -16.667 -0.5 -26v-20c0 -8 0.166992 -15.5 0.5 -22.5s0.833008 -14.167 1.5 -21.5h147v-50h-144c8 -64.667 23.333 -112.334 46 -143.001s49 -46 79 -46c11.333 0 23 2.16699 35 6.5
s23.667 10.166 35 17.499v-66c-11.333 -7.33301 -23.333 -12.666 -36 -15.999s-27.667 -5 -45 -5z" />
    <glyph glyph-name="yen" unicode="&#xa5;" horiz-adv-x="358" 
d="M148 129h-94v51h94v88h-94v50h84l-132 382h68l106 -335l106 335h66l-131 -382h84v-50h-95v-88h95v-51h-95v-129h-62v129z" />
    <glyph glyph-name="section" unicode="&#xa7;" horiz-adv-x="373" 
d="M168 -7c-17.333 0 -34.834 2.00195 -52.501 6.00195s-34.167 9.66699 -49.5 17v64c36.667 -19.333 70.667 -29 102 -29c21.333 0 38.333 5.83301 51 17.5s19 26.5 19 44.5v3c0 20.667 -8.66699 38 -26 52s-43 31 -77 51c-40.667 23.333 -70 45.166 -88 65.499
s-27 44.833 -27 73.5v2c0 24.667 8.33301 48.167 25 70.5s43.667 41.166 81 56.499c-19.333 16 -33 31.5 -41 46.5s-12 32.5 -12 52.5v3c0 34.667 12.333 63 37 85s56.667 33 96 33c16.667 0 31.834 -1.33301 45.501 -4s27.5 -6.66699 41.5 -12v-63
c-29.333 14.667 -58.333 22 -87 22c-22 0 -39.333 -5.83301 -52 -17.5s-19 -26.167 -19 -43.5v-2c0 -9.33301 1.66699 -17.833 5 -25.5s8.83301 -15.5 16.5 -23.5s18.167 -16.333 31.5 -25l50 -31c40.667 -24 70 -46.167 88 -66.5s27 -44.5 27 -72.5v-2
c0 -24.667 -8.16699 -48.167 -24.5 -70.5s-43.166 -41.166 -80.499 -56.499c19.333 -15.333 32.833 -30.333 40.5 -45s11.5 -32.334 11.5 -53.001v-2c0 -36 -12.333 -65.167 -37 -87.5s-56.334 -33.5 -95.001 -33.5zM207.999 243.002c30 13.333 51.335 27.999 64.002 43.999
s19 32.333 19 49v2c0 8.66699 -1.5 16.667 -4.5 24s-8.16699 15 -15.5 23s-17.333 16.667 -30 26s-29 19.666 -49 30.999c-9.33301 4.66699 -18 10 -26 16c-30.667 -13.333 -52.334 -27.833 -65.001 -43.5s-19 -32.167 -19 -49.5v-2c0 -8 1.5 -15.833 4.5 -23.5
s8.16699 -15.5 15.5 -23.5s17.333 -16.667 30 -26s29 -19.666 49 -30.999c5.33301 -3.33301 10.166 -6.16602 14.499 -8.49902s8.5 -4.83301 12.5 -7.5z" />
    <glyph glyph-name="dieresis" unicode="&#xa8;" 
d="M284 693h62v-79h-62v79zM154 693h62v-79h-62v79z" />
    <glyph glyph-name="copyright" unicode="&#xa9;" horiz-adv-x="523" 
d="M261 -10c-36 0 -68.667 8.83301 -98 26.5s-54.166 41.834 -74.499 72.501s-36.166 66.834 -47.499 108.501s-17 86.834 -17 135.501v35c0 48.667 5.66699 94 17 136s27.166 78.333 47.499 109s45.166 54.667 74.499 72s62 26 98 26s68.667 -8.66699 98 -26
s54.333 -41.333 75 -72s36.667 -67 48 -109s17 -87.333 17 -136v-35c0 -48.667 -5.66699 -93.834 -17 -135.501s-27.333 -77.834 -48 -108.501s-45.667 -54.834 -75 -72.501s-62 -26.5 -98 -26.5zM261 18c32.667 0 61.834 8.16699 87.501 24.5s47.5 38.666 65.5 66.999
s31.667 61.666 41 99.999s14 79.5 14 123.5v35c0 44 -4.66699 85.167 -14 123.5s-23 71.666 -41 99.999s-39.833 50.666 -65.5 66.999s-54.834 24.5 -87.501 24.5s-61.834 -8.16699 -87.501 -24.5s-47.5 -38.666 -65.5 -66.999s-31.667 -61.666 -41 -99.999
s-14 -79.5 -14 -123.5v-35c0 -44 4.66699 -85.167 14 -123.5s23 -71.666 41 -99.999s39.833 -50.666 65.5 -66.999s54.834 -24.5 87.501 -24.5zM269 152c-14 0 -27.5 3.83105 -40.5 11.498s-24.167 19.334 -33.5 35.001s-16.833 35.5 -22.5 59.5s-8.5 52.667 -8.5 86v13
c0 33.333 2.83301 62 8.5 86s13.5 43.833 23.5 59.5s21.667 27.334 35 35.001s27.333 11.5 42 11.5c9.33301 0 17.166 -0.833008 23.499 -2.5s13.166 -4.5 20.499 -8.5v-48c-16 9.33301 -29.667 14 -41 14c-17.333 0 -32.666 -11.167 -45.999 -33.5
s-20 -59.166 -20 -110.499v-19c0 -52.667 6.5 -90 19.5 -112s28.833 -33 47.5 -33c12.667 0 26.334 5 41.001 15v-47c-7.33301 -4.66699 -14.833 -7.83398 -22.5 -9.50098s-16.5 -2.5 -26.5 -2.5z" />
    <glyph glyph-name="ordfeminine" unicode="&#xaa;" horiz-adv-x="250" 
d="M105 403c-18 0 -33.168 8 -45.501 24s-18.5 37.333 -18.5 64v7c0 29.333 6.66699 52 20 68s31 24 53 24c14.667 0 28.667 -3.33301 42 -10v27c0 36.667 -15.667 55 -47 55c-9.33301 0 -18 -1.16699 -26 -3.5s-16.667 -5.83301 -26 -10.5v41
c7.33301 4 15.833 7.33301 25.5 10s20.167 4 31.5 4c26.667 0 47.334 -8 62.001 -24s22 -39 22 -69v-202h-42v33c-12.667 -25.333 -29.667 -38 -51 -38zM39.999 350h171v-33h-171v33zM115.999 439c11.333 0 20.835 5.83203 28.502 17.499s11.5 25.834 11.5 42.501v48
c-5.33301 2 -10.833 3.83301 -16.5 5.5s-11.834 2.5 -18.501 2.5c-12.667 0 -22.334 -5 -29.001 -15s-10 -23.333 -10 -40v-6c0 -16.667 2.83301 -30 8.5 -40s14.167 -15 25.5 -15z" />
    <glyph glyph-name="guillemotleft" unicode="&#xab;" horiz-adv-x="368" 
d="M163 255v8l121 213l50 -28l-110 -188l111 -190l-51 -29zM19 255v8l121 213l51 -28l-111 -188l111 -190l-51 -29z" />
    <glyph glyph-name="registered" unicode="&#xae;" horiz-adv-x="523" 
d="M261 -10c-36 0 -68.667 8.83301 -98 26.5s-54.166 41.834 -74.499 72.501s-36.166 66.834 -47.499 108.501s-17 86.834 -17 135.501v35c0 48.667 5.66699 94 17 136s27.166 78.333 47.499 109s45.166 54.667 74.499 72s62 26 98 26s68.667 -8.66699 98 -26
s54.333 -41.333 75 -72s36.667 -67 48 -109s17 -87.333 17 -136v-35c0 -48.667 -5.66699 -93.834 -17 -135.501s-27.333 -77.834 -48 -108.501s-45.667 -54.834 -75 -72.501s-62 -26.5 -98 -26.5zM261 18c32.667 0 61.834 8.16699 87.501 24.5s47.5 38.666 65.5 66.999
s31.667 61.666 41 99.999s14 79.5 14 123.5v35c0 44 -4.66699 85.167 -14 123.5s-23 71.666 -41 99.999s-39.833 50.666 -65.5 66.999s-54.834 24.5 -87.501 24.5s-61.834 -8.16699 -87.501 -24.5s-47.5 -38.666 -65.5 -66.999s-31.667 -61.666 -41 -99.999
s-14 -79.5 -14 -123.5v-35c0 -44 4.66699 -85.167 14 -123.5s23 -71.666 41 -99.999s39.833 -50.666 65.5 -66.999s54.834 -24.5 87.501 -24.5zM183 549h62c34.667 0 62.167 -10.167 82.5 -30.5s30.5 -49.166 30.5 -86.499v-4c0 -25.333 -5 -46.833 -15 -64.5
s-23.667 -30.834 -41 -39.501l65 -160h-47l-58 146c-3.33301 -0.666992 -8 -1 -14 -1h-22v-145h-43v385zM246 350c20.667 0 37.333 6.16797 50 18.501s19 32.166 19 59.499v2c0 27.333 -6.66699 46.833 -20 58.5s-30.333 17.5 -51 17.5h-18v-156h20z" />
    <glyph glyph-name="macron" unicode="&#xaf;" 
d="M138 661h224v-58h-224v58z" />
    <glyph glyph-name="degree" unicode="&#xb0;" horiz-adv-x="255" 
d="M128 391c-30 0 -54.667 13.667 -74 41s-29 65 -29 113v9c0 48 9.66699 85.5 29 112.5s44 40.5 74 40.5c29.333 0 53.666 -13.5 72.999 -40.5s29 -64.5 29 -112.5v-9c0 -48 -9.66699 -85.667 -29 -113s-43.666 -41 -72.999 -41zM128 439c16.667 0 30 9.16699 40 27.5
s15 44.5 15 78.5v9c0 34 -5 60.167 -15 78.5s-23.333 27.5 -40 27.5c-17.333 0 -31 -9.16699 -41 -27.5s-15 -44.5 -15 -78.5v-9c0 -34 5 -60.167 15 -78.5s23.667 -27.5 41 -27.5z" />
    <glyph glyph-name="plusminus" unicode="&#xb1;" horiz-adv-x="315" 
d="M108 -5c-19.333 0 -36.3398 1.83105 -51.0068 5.49805s-27.334 7.83398 -38.001 12.501v62c11.333 -4.66699 24.333 -9 39 -13s29.667 -6 45 -6c34 0 62.667 12.167 86 36.5s35 58.5 35 102.5v3c0 44.667 -12.833 78.334 -38.5 101.001s-61.5 35 -107.5 37v55
c20.667 2 39.834 6.66699 57.501 14s32.834 17.333 45.501 30s22.5 27.5 29.5 44.5s10.5 35.5 10.5 55.5v2c0 33.333 -9.16699 59.666 -27.5 78.999s-43.166 29 -74.499 29c-15.333 0 -30.666 -2.5 -45.999 -7.5s-29.666 -11.167 -42.999 -18.5v61
c12.667 6.66699 27.334 12.5 44.001 17.5s34.334 7.5 53.001 7.5c50 0 88.833 -15 116.5 -45s41.5 -69 41.5 -117v-4c0 -44.667 -11.167 -80.834 -33.5 -108.501s-50.166 -48.5 -83.499 -62.5c36 -11.333 65 -31.333 87 -60s33 -66 33 -112v-3
c0 -30 -4.5 -57.167 -13.5 -81.5s-21.5 -45.166 -37.5 -62.499s-35 -30.666 -57 -39.999s-46 -14 -72 -14z" />
    <glyph glyph-name="acute" unicode="&#xb4;" 
d="M259 735l60 -32l-97 -113h-40z" />
    <glyph glyph-name="mu" unicode="&#xb5;" horiz-adv-x="410" 
d="M254 3c-7.33301 -3.33301 -15.168 -6.16602 -23.501 -8.49902s-16.833 -3.5 -25.5 -3.5c-24.667 0 -47.5 7.33301 -68.5 22s-39.167 36.5 -54.5 65.5s-27.333 65.167 -36 108.5s-13 94 -13 152v22c0 58 4.33301 108.667 13 152s20.667 79.5 36 108.5
s33.5 50.833 54.5 65.5s43.833 22 68.5 22s47.5 -7.33301 68.5 -22s39 -36.5 54 -65.5s26.833 -65.167 35.5 -108.5s13 -94 13 -152v-22c0 -72.667 -6.66699 -133.834 -20 -183.501s-31.666 -88.167 -54.999 -115.5l91 -133h-71zM204.998 51c30 0 55.167 23.333 75.5 70
s30.5 119.334 30.5 218.001v22c0 98.667 -10.167 171.334 -30.5 218.001s-45.5 70 -75.5 70s-55.167 -23.333 -75.5 -70s-30.5 -119.334 -30.5 -218.001v-22c0 -98.667 10.167 -171.334 30.5 -218.001s45.5 -70 75.5 -70z" />
    <glyph glyph-name="paragraph" unicode="&#xb6;" horiz-adv-x="334" 
d="M217 249c-30 0.666992 -57.166 6.33496 -81.499 17.002s-45.333 25.667 -63 45s-31.167 42.666 -40.5 69.999s-14 58.666 -14 93.999v2c0 36 5 67.833 15 95.5s24.333 51 43 70s40.667 33.333 66 43s53.666 14.5 84.999 14.5h55v-700h-65v249z" />
    <glyph glyph-name="periodcentered" unicode="&#xb7;" horiz-adv-x="175" 
d="M46 351h84v-100h-84v100z" />
    <glyph glyph-name="cedilla" unicode="&#xb8;" 
d="M168 -105l74 118h42l-55 -143z" />
    <glyph glyph-name="ordmasculine" unicode="&#xba;" horiz-adv-x="250" 
d="M125 402c-26 0 -46.833 13.167 -62.5 39.5s-23.5 61.5 -23.5 105.5v12c0 44 7.83301 79.167 23.5 105.5s36.5 39.5 62.5 39.5s46.833 -13.167 62.5 -39.5s23.5 -61.5 23.5 -105.5v-12c0 -44 -7.83301 -79.167 -23.5 -105.5s-36.5 -39.5 -62.5 -39.5zM44 350h164v-33h-164
v33zM125 441c15.333 0 26.5 10.167 33.5 30.5s10.5 45.5 10.5 75.5v12c0 30 -3.5 55.167 -10.5 75.5s-18.167 30.5 -33.5 30.5s-26.5 -10.167 -33.5 -30.5s-10.5 -45.5 -10.5 -75.5v-12c0 -30 3.5 -55.167 10.5 -75.5s18.167 -30.5 33.5 -30.5z" />
    <glyph glyph-name="guillemotright" unicode="&#xbb;" horiz-adv-x="368" 
d="M174 70l111 188l-110 190l50 28l121 -213v-8l-121 -214zM30 70l111 188l-110 190l50 28l121 -213v-8l-121 -214z" />
    <glyph glyph-name="questiondown" unicode="&#xbf;" horiz-adv-x="308" 
d="M138 700h81v-97h-81v97zM184 -4c-23.333 0 -44.668 4.16602 -64.001 12.499s-36.333 20 -51 35s-26 32.833 -34 53.5s-12 43.334 -12 68.001v6c0 26 3.33301 49 10 69s15.834 37.667 27.501 53s25.334 28.833 41.001 40.5s32.167 21.5 49.5 29.5l10 145h42l8 -174l-4 -6
c-18 -6.66699 -34.167 -14.5 -48.5 -23.5s-26.833 -19.667 -37.5 -32s-18.834 -26.666 -24.501 -42.999s-8.5 -34.833 -8.5 -55.5v-3c0 -36 10.167 -64.167 30.5 -84.5s44.833 -30.5 73.5 -30.5c17.333 0 33.333 2.16699 48 6.5s29.667 11.166 45 20.499v-61
c-14 -7.33301 -29 -13.5 -45 -18.5s-34.667 -7.5 -56 -7.5z" />
    <glyph glyph-name="Agrave" unicode="&#xc0;" horiz-adv-x="407" 
d="M168 703h70l148 -703h-66l-37 181h-162l-36 -181h-64zM273 240l-71 352l-71 -352h142zM102 854l60 32l76 -145h-40z" />
    <glyph glyph-name="Aacute" unicode="&#xc1;" horiz-adv-x="407" 
d="M168 703h70l148 -703h-66l-37 181h-162l-36 -181h-64zM273 240l-71 352l-71 -352h142zM244 886l60 -32l-97 -113h-40z" />
    <glyph glyph-name="Acircumflex" unicode="&#xc2;" horiz-adv-x="407" 
d="M168 703h70l148 -703h-66l-37 181h-162l-36 -181h-64zM273 240l-71 352l-71 -352h142zM178 876h51l71 -131h-50l-47 83l-47 -83h-48z" />
    <glyph glyph-name="Atilde" unicode="&#xc3;" horiz-adv-x="407" 
d="M168 703h70l148 -703h-66l-37 181h-162l-36 -181h-64zM273 240l-71 352l-71 -352h142zM251 740c-12 0 -21.833 2.33203 -29.5 6.99902s-16.167 11 -25.5 19s-16.5 13.667 -21.5 17s-10.167 5 -15.5 5c-7.33301 0 -13 -3.83301 -17 -11.5s-8.33301 -19.167 -13 -34.5
l-38 11c5.33301 28.667 13.666 49.834 24.999 63.501s23.666 20.5 36.999 20.5c12 0 21.833 -2.33301 29.5 -7s16.167 -10.667 25.5 -18c9.33301 -8 16.5 -13.833 21.5 -17.5s10.167 -5.5 15.5 -5.5c11.333 0 21 15.333 29 46l39 -10
c-5.33301 -29.333 -13.666 -50.833 -24.999 -64.5s-23.666 -20.5 -36.999 -20.5z" />
    <glyph glyph-name="Adieresis" unicode="&#xc4;" horiz-adv-x="407" 
d="M168 703h70l148 -703h-66l-37 181h-162l-36 -181h-64zM273 240l-71 352l-71 -352h142zM238 844h62v-79h-62v79zM108 844h62v-79h-62v79z" />
    <glyph glyph-name="Aring" unicode="&#xc5;" horiz-adv-x="407" 
d="M164 683c-14 7.33301 -25.667 18.5 -35 33.5s-14 32.5 -14 52.5v6c0 28.667 8.66699 52 26 70s38 27 62 27s44.667 -9 62 -27s26 -41.333 26 -70v-6c0 -20 -4.66699 -37.333 -14 -52s-21 -26 -35 -34l144 -683h-66l-37 181h-162l-36 -181h-64zM203 710
c15.333 0 27.166 6.16699 35.499 18.5s12.5 26.166 12.5 41.499v5c0 15.333 -4.16699 29.166 -12.5 41.499s-20.166 18.5 -35.499 18.5c-16 0 -28.167 -6.16699 -36.5 -18.5s-12.5 -26.166 -12.5 -41.499v-5c0 -15.333 4.33301 -29.166 13 -41.499s20.667 -18.5 36 -18.5z
M273 240l-71 352l-71 -352h142z" />
    <glyph glyph-name="AE" unicode="&#xc6;" horiz-adv-x="522" 
d="M196 700h296v-61h-181v-256h164v-61h-164v-261h184v-61h-249v181h-132l-49 -181h-63zM246 240v397h-10l-106 -397h116z" />
    <glyph glyph-name="Ccedilla" unicode="&#xc7;" horiz-adv-x="331" 
d="M115 -105l67.9971 106.002c-22 6 -42.167 17.5 -60.5 34.5s-34.166 39.5 -47.499 67.5s-23.666 61.667 -30.999 101s-11 84.666 -11 135.999v20c0 58.667 5.16699 109.667 15.5 153s24.333 79.166 42 107.499s38 49.333 61 63s47.5 20.5 73.5 20.5
c16 0 29.167 -1.33301 39.5 -4s21.166 -6.66699 32.499 -12v-69c-13.333 7.33301 -25.166 12.833 -35.499 16.5s-21.166 5.5 -32.499 5.5c-18 0 -34.833 -5.66699 -50.5 -17s-29.5 -28.5 -41.5 -51.5s-21.333 -52.167 -28 -87.5s-10 -77 -10 -125v-20
c0 -48.667 3.33301 -90.667 10 -126s16 -64.5 28 -87.5s25.833 -40 41.5 -51s32.5 -16.5 50.5 -16.5c12 0 23.5 1.83301 34.5 5.5s22.833 9.16699 35.5 16.5v-65c-21.333 -13.333 -46 -20 -74 -20l-49 -126z" />
    <glyph glyph-name="Egrave" unicode="&#xc8;" horiz-adv-x="326" 
d="M51 700h246v-61h-181v-256h164v-61h-164v-261h184v-61h-249v700zM76 854l60 32l76 -145h-40z" />
    <glyph glyph-name="Eacute" unicode="&#xc9;" horiz-adv-x="326" 
d="M51 700h246v-61h-181v-256h164v-61h-164v-261h184v-61h-249v700zM212 886l60 -32l-97 -113h-40z" />
    <glyph glyph-name="Ecircumflex" unicode="&#xca;" horiz-adv-x="326" 
d="M51 700h246v-61h-181v-256h164v-61h-164v-261h184v-61h-249v700zM137 876h51l71 -131h-50l-47 83l-47 -83h-48z" />
    <glyph glyph-name="Edieresis" unicode="&#xcb;" horiz-adv-x="326" 
d="M51 700h246v-61h-181v-256h164v-61h-164v-261h184v-61h-249v700zM210 844h62v-79h-62v79zM80 844h62v-79h-62v79z" />
    <glyph glyph-name="Igrave" unicode="&#xcc;" horiz-adv-x="178" 
d="M56 700h65v-700h-65v700zM-20 854l60 32l76 -145h-40z" />
    <glyph glyph-name="Iacute" unicode="&#xcd;" horiz-adv-x="178" 
d="M56 700h65v-700h-65v700zM134 886l60 -32l-97 -113h-40z" />
    <glyph glyph-name="Icircumflex" unicode="&#xce;" horiz-adv-x="178" 
d="M56 700h65v-700h-65v700zM63 876h51l71 -131h-50l-47 83l-47 -83h-48z" />
    <glyph glyph-name="Idieresis" unicode="&#xcf;" horiz-adv-x="178" 
d="M56 700h65v-700h-65v700zM123 844h62v-79h-62v79zM-7 844h62v-79h-62v79z" />
    <glyph glyph-name="Eth" unicode="&#xd0;" horiz-adv-x="420" 
d="M66 322h-57v60h57v318h91c34 0 65.167 -7.16699 93.5 -21.5s52.5 -35.833 72.5 -64.5s35.5 -64.167 46.5 -106.5s16.5 -91.5 16.5 -147.5v-20c0 -56 -5.5 -105.167 -16.5 -147.5s-26.5 -77.833 -46.5 -106.5s-44.167 -50.167 -72.5 -64.5s-59.5 -21.5 -93.5 -21.5h-91
v322zM161 59c22.667 0 43.832 5.66699 63.499 17s36.667 28.5 51 51.5s25.5 52.167 33.5 87.5s12 77 12 125v20c0 48 -4.16699 89.667 -12.5 125s-19.666 64.5 -33.999 87.5s-31.5 40.167 -51.5 51.5s-41.333 17 -64 17h-29v-259h82v-60h-82v-263h31z" />
    <glyph glyph-name="Ntilde" unicode="&#xd1;" horiz-adv-x="422" 
d="M51 700h65l193 -525v525h63v-700h-61l-198 540v-540h-62v700zM264 740c-12 0 -21.833 2.33203 -29.5 6.99902s-16.167 11 -25.5 19s-16.5 13.667 -21.5 17s-10.167 5 -15.5 5c-7.33301 0 -13 -3.83301 -17 -11.5s-8.33301 -19.167 -13 -34.5l-38 11
c5.33301 28.667 13.666 49.834 24.999 63.501s23.666 20.5 36.999 20.5c12 0 21.833 -2.33301 29.5 -7s16.167 -10.667 25.5 -18c9.33301 -8 16.5 -13.833 21.5 -17.5s10.167 -5.5 15.5 -5.5c11.333 0 21 15.333 29 46l39 -10
c-5.33301 -29.333 -13.666 -50.833 -24.999 -64.5s-23.666 -20.5 -36.999 -20.5z" />
    <glyph glyph-name="Ograve" unicode="&#xd2;" horiz-adv-x="410" 
d="M205 -9c-24.667 0 -47.5 7.33301 -68.5 22s-39.167 36.5 -54.5 65.5s-27.333 65.167 -36 108.5s-13 94 -13 152v22c0 58 4.33301 108.667 13 152s20.667 79.5 36 108.5s33.5 50.833 54.5 65.5s43.833 22 68.5 22s47.5 -7.33301 68.5 -22s39 -36.5 54 -65.5
s26.833 -65.167 35.5 -108.5s13 -94 13 -152v-22c0 -58 -4.33301 -108.667 -13 -152s-20.5 -79.5 -35.5 -108.5s-33 -50.833 -54 -65.5s-43.833 -22 -68.5 -22zM205 51c30 0 55.167 23.333 75.5 70s30.5 119.334 30.5 218.001v22c0 98.667 -10.167 171.334 -30.5 218.001
s-45.5 70 -75.5 70s-55.167 -23.333 -75.5 -70s-30.5 -119.334 -30.5 -218.001v-22c0 -98.667 10.167 -171.334 30.5 -218.001s45.5 -70 75.5 -70zM91 854l60 32l76 -145h-40z" />
    <glyph glyph-name="Oacute" unicode="&#xd3;" horiz-adv-x="410" 
d="M205 -9c-24.667 0 -47.5 7.33301 -68.5 22s-39.167 36.5 -54.5 65.5s-27.333 65.167 -36 108.5s-13 94 -13 152v22c0 58 4.33301 108.667 13 152s20.667 79.5 36 108.5s33.5 50.833 54.5 65.5s43.833 22 68.5 22s47.5 -7.33301 68.5 -22s39 -36.5 54 -65.5
s26.833 -65.167 35.5 -108.5s13 -94 13 -152v-22c0 -58 -4.33301 -108.667 -13 -152s-20.5 -79.5 -35.5 -108.5s-33 -50.833 -54 -65.5s-43.833 -22 -68.5 -22zM205 51c30 0 55.167 23.333 75.5 70s30.5 119.334 30.5 218.001v22c0 98.667 -10.167 171.334 -30.5 218.001
s-45.5 70 -75.5 70s-55.167 -23.333 -75.5 -70s-30.5 -119.334 -30.5 -218.001v-22c0 -98.667 10.167 -171.334 30.5 -218.001s45.5 -70 75.5 -70zM254 886l60 -32l-97 -113h-40z" />
    <glyph glyph-name="Ocircumflex" unicode="&#xd4;" horiz-adv-x="410" 
d="M205 -9c-24.667 0 -47.5 7.33301 -68.5 22s-39.167 36.5 -54.5 65.5s-27.333 65.167 -36 108.5s-13 94 -13 152v22c0 58 4.33301 108.667 13 152s20.667 79.5 36 108.5s33.5 50.833 54.5 65.5s43.833 22 68.5 22s47.5 -7.33301 68.5 -22s39 -36.5 54 -65.5
s26.833 -65.167 35.5 -108.5s13 -94 13 -152v-22c0 -58 -4.33301 -108.667 -13 -152s-20.5 -79.5 -35.5 -108.5s-33 -50.833 -54 -65.5s-43.833 -22 -68.5 -22zM205 51c30 0 55.167 23.333 75.5 70s30.5 119.334 30.5 218.001v22c0 98.667 -10.167 171.334 -30.5 218.001
s-45.5 70 -75.5 70s-55.167 -23.333 -75.5 -70s-30.5 -119.334 -30.5 -218.001v-22c0 -98.667 10.167 -171.334 30.5 -218.001s45.5 -70 75.5 -70zM179 876h51l71 -131h-50l-47 83l-47 -83h-48z" />
    <glyph glyph-name="Otilde" unicode="&#xd5;" horiz-adv-x="410" 
d="M205 -9c-24.667 0 -47.5 7.33301 -68.5 22s-39.167 36.5 -54.5 65.5s-27.333 65.167 -36 108.5s-13 94 -13 152v22c0 58 4.33301 108.667 13 152s20.667 79.5 36 108.5s33.5 50.833 54.5 65.5s43.833 22 68.5 22s47.5 -7.33301 68.5 -22s39 -36.5 54 -65.5
s26.833 -65.167 35.5 -108.5s13 -94 13 -152v-22c0 -58 -4.33301 -108.667 -13 -152s-20.5 -79.5 -35.5 -108.5s-33 -50.833 -54 -65.5s-43.833 -22 -68.5 -22zM205 51c30 0 55.167 23.333 75.5 70s30.5 119.334 30.5 218.001v22c0 98.667 -10.167 171.334 -30.5 218.001
s-45.5 70 -75.5 70s-55.167 -23.333 -75.5 -70s-30.5 -119.334 -30.5 -218.001v-22c0 -98.667 10.167 -171.334 30.5 -218.001s45.5 -70 75.5 -70zM254 740c-12 0 -21.833 2.33203 -29.5 6.99902s-16.167 11 -25.5 19s-16.5 13.667 -21.5 17s-10.167 5 -15.5 5
c-7.33301 0 -13 -3.83301 -17 -11.5s-8.33301 -19.167 -13 -34.5l-38 11c5.33301 28.667 13.666 49.834 24.999 63.501s23.666 20.5 36.999 20.5c12 0 21.833 -2.33301 29.5 -7s16.167 -10.667 25.5 -18c9.33301 -8 16.5 -13.833 21.5 -17.5s10.167 -5.5 15.5 -5.5
c11.333 0 21 15.333 29 46l39 -10c-5.33301 -29.333 -13.666 -50.833 -24.999 -64.5s-23.666 -20.5 -36.999 -20.5z" />
    <glyph glyph-name="Odieresis" unicode="&#xd6;" horiz-adv-x="410" 
d="M205 -9c-24.667 0 -47.5 7.33301 -68.5 22s-39.167 36.5 -54.5 65.5s-27.333 65.167 -36 108.5s-13 94 -13 152v22c0 58 4.33301 108.667 13 152s20.667 79.5 36 108.5s33.5 50.833 54.5 65.5s43.833 22 68.5 22s47.5 -7.33301 68.5 -22s39 -36.5 54 -65.5
s26.833 -65.167 35.5 -108.5s13 -94 13 -152v-22c0 -58 -4.33301 -108.667 -13 -152s-20.5 -79.5 -35.5 -108.5s-33 -50.833 -54 -65.5s-43.833 -22 -68.5 -22zM205 51c30 0 55.167 23.333 75.5 70s30.5 119.334 30.5 218.001v22c0 98.667 -10.167 171.334 -30.5 218.001
s-45.5 70 -75.5 70s-55.167 -23.333 -75.5 -70s-30.5 -119.334 -30.5 -218.001v-22c0 -98.667 10.167 -171.334 30.5 -218.001s45.5 -70 75.5 -70zM240 844h62v-79h-62v79zM110 844h62v-79h-62v79z" />
    <glyph glyph-name="Oslash" unicode="&#xd8;" horiz-adv-x="410" 
d="M77 88c-13.333 29.333 -24.001 64.833 -32.001 106.5s-12 89.834 -12 144.501v22c0 58 4.33301 108.667 13 152s20.667 79.5 36 108.5s33.5 50.833 54.5 65.5s43.833 22 68.5 22c40 0 74 -19 102 -57l23 55h50l-44 -104c26.667 -58.667 40 -139.334 40 -242.001v-22
c0 -58 -4.33301 -108.667 -13 -152s-20.5 -79.5 -35.5 -108.5s-33 -50.833 -54 -65.5s-43.833 -22 -68.5 -22c-37.333 0 -69.666 16.667 -96.999 50l-20 -48h-50zM279.999 581c-9.33301 23.333 -20.333 40.667 -33 52s-26.667 17 -42 17
c-30.667 0 -56.167 -23.5 -76.5 -70.5s-30.5 -119.833 -30.5 -218.5v-22c0 -33.333 1.33301 -63.333 4 -90s6.66699 -50.667 12 -72zM204.999 50.001c30.667 0 56.167 23.499 76.5 70.499s30.5 119.833 30.5 218.5v22c0 58 -4.66699 107.333 -14 148l-166 -399
c9.33301 -21.333 20.333 -36.666 33 -45.999s26 -14 40 -14z" />
    <glyph glyph-name="Ugrave" unicode="&#xd9;" horiz-adv-x="411" 
d="M206 -9c-48 0 -86.168 16.833 -114.501 50.5s-42.5 81.834 -42.5 144.501v514h64v-517c0 -44 8.33301 -77 25 -99s39.334 -33 68.001 -33c28 0 50.5 11 67.5 33s25.5 55 25.5 99v517h65v-514c0 -62.667 -14.333 -110.834 -43 -144.501s-67 -50.5 -115 -50.5zM87.999 854
l60 32l76 -145h-40z" />
    <glyph glyph-name="Uacute" unicode="&#xda;" horiz-adv-x="411" 
d="M206 -9c-48 0 -86.168 16.833 -114.501 50.5s-42.5 81.834 -42.5 144.501v514h64v-517c0 -44 8.33301 -77 25 -99s39.334 -33 68.001 -33c28 0 50.5 11 67.5 33s25.5 55 25.5 99v517h65v-514c0 -62.667 -14.333 -110.834 -43 -144.501s-67 -50.5 -115 -50.5zM258.999 886
l60 -32l-97 -113h-40z" />
    <glyph glyph-name="Ucircumflex" unicode="&#xdb;" horiz-adv-x="411" 
d="M206 -9c-48 0 -86.168 16.833 -114.501 50.5s-42.5 81.834 -42.5 144.501v514h64v-517c0 -44 8.33301 -77 25 -99s39.334 -33 68.001 -33c28 0 50.5 11 67.5 33s25.5 55 25.5 99v517h65v-514c0 -62.667 -14.333 -110.834 -43 -144.501s-67 -50.5 -115 -50.5zM178.999 876
h51l71 -131h-50l-47 83l-47 -83h-48z" />
    <glyph glyph-name="Udieresis" unicode="&#xdc;" horiz-adv-x="411" 
d="M206 -9c-48 0 -86.168 16.833 -114.501 50.5s-42.5 81.834 -42.5 144.501v514h64v-517c0 -44 8.33301 -77 25 -99s39.334 -33 68.001 -33c28 0 50.5 11 67.5 33s25.5 55 25.5 99v517h65v-514c0 -62.667 -14.333 -110.834 -43 -144.501s-67 -50.5 -115 -50.5zM238.999 844
h62v-79h-62v79zM108.999 844h62v-79h-62v79z" />
    <glyph glyph-name="Yacute" unicode="&#xdd;" horiz-adv-x="360" 
d="M148 295l-142 405h69l106 -321l107 321h66l-141 -405v-295h-65v295zM231 886l60 -32l-97 -113h-40z" />
    <glyph glyph-name="Thorn" unicode="&#xde;" horiz-adv-x="370" 
d="M51 700l65.999 0.000976562v-115h30c29.333 0 56.5 -4.83301 81.5 -14.5s46.5 -24 64.5 -43s32.167 -42.333 42.5 -70s15.5 -59.5 15.5 -95.5v-2c0 -70.667 -18.167 -125.834 -54.5 -165.501s-87.166 -60.167 -152.499 -61.5h-28v-133h-65v700zM146.999 192.001
c44 0.666992 78.167 15.168 102.5 43.501s36.5 69.166 36.5 122.499v2c0 54 -12.5 95 -37.5 123s-58.833 42 -101.5 42h-31v-333h31z" />
    <glyph glyph-name="germandbls" unicode="&#xdf;" horiz-adv-x="374" 
d="M166 52c41.333 3.33301 71.499 17.1689 90.499 41.502s28.5 56.166 28.5 95.499v3c0 40 -9.83301 72.5 -29.5 97.5s-49.5 41.167 -89.5 48.5v48c37.333 14.667 63.333 36.5 78 65.5s22 59.167 22 90.5v4c0 34.667 -7.33301 61 -22 79s-32.667 27 -54 27
c-24.667 0 -44.167 -11.5 -58.5 -34.5s-21.5 -54.833 -21.5 -95.5v-522h-62v518c0 60 12.667 106.833 38 140.5s60.666 50.5 105.999 50.5c20 0 38.333 -3.83301 55 -11.5s30.834 -18.334 42.501 -32.001s20.834 -30.167 27.501 -49.5s10 -40.666 10 -63.999v-6
c0 -44 -9.33301 -80.667 -28 -110s-43 -51.333 -73 -66c36.667 -13.333 66.167 -34 88.5 -62s33.5 -65.667 33.5 -113v-6c0 -56.667 -15.667 -102.334 -47 -137.001s-76.333 -52.667 -135 -54v54z" />
    <glyph glyph-name="agrave" unicode="&#xe0;" horiz-adv-x="346" 
d="M139 -9c-16.667 0 -32.0029 4 -46.0029 12s-26.167 19.167 -36.5 33.5s-18.333 31.333 -24 51s-8.5 41.167 -8.5 64.5v10c0 52 11.667 93.167 35 123.5s56 45.5 98 45.5c16.667 0 31.834 -2 45.501 -6s26.5 -8.66699 38.5 -14v57c0 34 -7.83301 60.333 -23.5 79
s-39.167 28 -70.5 28c-17.333 0 -33.666 -2 -48.999 -6s-30.666 -10 -45.999 -18v60c15.333 7.33301 31.333 13 48 17s35 6 55 6c46 0 82.167 -13.667 108.5 -41s39.5 -67 39.5 -119v-374h-63v71c-10.667 -25.333 -24.167 -45 -40.5 -59s-36.5 -21 -60.5 -21zM156.997 45
c12.667 0 24.168 3 34.501 9s19.166 14.333 26.499 25s13 22.667 17 36s6 27.666 6 42.999v101c-11.333 5.33301 -23.166 9.83301 -35.499 13.5s-24.833 5.5 -37.5 5.5c-27.333 0 -48 -10.167 -62 -30.5s-21 -47.5 -21 -81.5v-10c0 -33.333 6.16699 -60.166 18.5 -80.499
s30.166 -30.5 53.499 -30.5zM59.998 703l60 32l76 -145h-40z" />
    <glyph glyph-name="aacute" unicode="&#xe1;" horiz-adv-x="346" 
d="M139 -9c-16.667 0 -32.0029 4 -46.0029 12s-26.167 19.167 -36.5 33.5s-18.333 31.333 -24 51s-8.5 41.167 -8.5 64.5v10c0 52 11.667 93.167 35 123.5s56 45.5 98 45.5c16.667 0 31.834 -2 45.501 -6s26.5 -8.66699 38.5 -14v57c0 34 -7.83301 60.333 -23.5 79
s-39.167 28 -70.5 28c-17.333 0 -33.666 -2 -48.999 -6s-30.666 -10 -45.999 -18v60c15.333 7.33301 31.333 13 48 17s35 6 55 6c46 0 82.167 -13.667 108.5 -41s39.5 -67 39.5 -119v-374h-63v71c-10.667 -25.333 -24.167 -45 -40.5 -59s-36.5 -21 -60.5 -21zM156.997 45
c12.667 0 24.168 3 34.501 9s19.166 14.333 26.499 25s13 22.667 17 36s6 27.666 6 42.999v101c-11.333 5.33301 -23.166 9.83301 -35.499 13.5s-24.833 5.5 -37.5 5.5c-27.333 0 -48 -10.167 -62 -30.5s-21 -47.5 -21 -81.5v-10c0 -33.333 6.16699 -60.166 18.5 -80.499
s30.166 -30.5 53.499 -30.5zM214.998 735l60 -32l-97 -113h-40z" />
    <glyph glyph-name="acircumflex" unicode="&#xe2;" horiz-adv-x="346" 
d="M139 -9c-16.667 0 -32.0029 4 -46.0029 12s-26.167 19.167 -36.5 33.5s-18.333 31.333 -24 51s-8.5 41.167 -8.5 64.5v10c0 52 11.667 93.167 35 123.5s56 45.5 98 45.5c16.667 0 31.834 -2 45.501 -6s26.5 -8.66699 38.5 -14v57c0 34 -7.83301 60.333 -23.5 79
s-39.167 28 -70.5 28c-17.333 0 -33.666 -2 -48.999 -6s-30.666 -10 -45.999 -18v60c15.333 7.33301 31.333 13 48 17s35 6 55 6c46 0 82.167 -13.667 108.5 -41s39.5 -67 39.5 -119v-374h-63v71c-10.667 -25.333 -24.167 -45 -40.5 -59s-36.5 -21 -60.5 -21zM156.997 45
c12.667 0 24.168 3 34.501 9s19.166 14.333 26.499 25s13 22.667 17 36s6 27.666 6 42.999v101c-11.333 5.33301 -23.166 9.83301 -35.499 13.5s-24.833 5.5 -37.5 5.5c-27.333 0 -48 -10.167 -62 -30.5s-21 -47.5 -21 -81.5v-10c0 -33.333 6.16699 -60.166 18.5 -80.499
s30.166 -30.5 53.499 -30.5zM145.998 725h51l71 -131h-50l-47 83l-47 -83h-48z" />
    <glyph glyph-name="atilde" unicode="&#xe3;" horiz-adv-x="346" 
d="M139 -9c-16.667 0 -32.0029 4 -46.0029 12s-26.167 19.167 -36.5 33.5s-18.333 31.333 -24 51s-8.5 41.167 -8.5 64.5v10c0 52 11.667 93.167 35 123.5s56 45.5 98 45.5c16.667 0 31.834 -2 45.501 -6s26.5 -8.66699 38.5 -14v57c0 34 -7.83301 60.333 -23.5 79
s-39.167 28 -70.5 28c-17.333 0 -33.666 -2 -48.999 -6s-30.666 -10 -45.999 -18v60c15.333 7.33301 31.333 13 48 17s35 6 55 6c46 0 82.167 -13.667 108.5 -41s39.5 -67 39.5 -119v-374h-63v71c-10.667 -25.333 -24.167 -45 -40.5 -59s-36.5 -21 -60.5 -21zM156.997 45
c12.667 0 24.168 3 34.501 9s19.166 14.333 26.499 25s13 22.667 17 36s6 27.666 6 42.999v101c-11.333 5.33301 -23.166 9.83301 -35.499 13.5s-24.833 5.5 -37.5 5.5c-27.333 0 -48 -10.167 -62 -30.5s-21 -47.5 -21 -81.5v-10c0 -33.333 6.16699 -60.166 18.5 -80.499
s30.166 -30.5 53.499 -30.5zM223.998 589c-12 0 -21.833 2.33203 -29.5 6.99902s-16.167 11 -25.5 19s-16.5 13.667 -21.5 17s-10.167 5 -15.5 5c-7.33301 0 -13 -3.83301 -17 -11.5s-8.33301 -19.167 -13 -34.5l-38 11c5.33301 28.667 13.666 49.834 24.999 63.501
s23.666 20.5 36.999 20.5c12 0 21.833 -2.33301 29.5 -7s16.167 -10.667 25.5 -18c9.33301 -8 16.5 -13.833 21.5 -17.5s10.167 -5.5 15.5 -5.5c11.333 0 21 15.333 29 46l39 -10c-5.33301 -29.333 -13.666 -50.833 -24.999 -64.5s-23.666 -20.5 -36.999 -20.5z" />
    <glyph glyph-name="adieresis" unicode="&#xe4;" horiz-adv-x="346" 
d="M139 -9c-16.667 0 -32.0029 4 -46.0029 12s-26.167 19.167 -36.5 33.5s-18.333 31.333 -24 51s-8.5 41.167 -8.5 64.5v10c0 52 11.667 93.167 35 123.5s56 45.5 98 45.5c16.667 0 31.834 -2 45.501 -6s26.5 -8.66699 38.5 -14v57c0 34 -7.83301 60.333 -23.5 79
s-39.167 28 -70.5 28c-17.333 0 -33.666 -2 -48.999 -6s-30.666 -10 -45.999 -18v60c15.333 7.33301 31.333 13 48 17s35 6 55 6c46 0 82.167 -13.667 108.5 -41s39.5 -67 39.5 -119v-374h-63v71c-10.667 -25.333 -24.167 -45 -40.5 -59s-36.5 -21 -60.5 -21zM156.997 45
c12.667 0 24.168 3 34.501 9s19.166 14.333 26.499 25s13 22.667 17 36s6 27.666 6 42.999v101c-11.333 5.33301 -23.166 9.83301 -35.499 13.5s-24.833 5.5 -37.5 5.5c-27.333 0 -48 -10.167 -62 -30.5s-21 -47.5 -21 -81.5v-10c0 -33.333 6.16699 -60.166 18.5 -80.499
s30.166 -30.5 53.499 -30.5zM205.998 693h62v-79h-62v79zM75.998 693h62v-79h-62v79z" />
    <glyph glyph-name="aring" unicode="&#xe5;" horiz-adv-x="346" 
d="M139 -9c-16.667 0 -32.0029 4 -46.0029 12s-26.167 19.167 -36.5 33.5s-18.333 31.333 -24 51s-8.5 41.167 -8.5 64.5v10c0 52 11.667 93.167 35 123.5s56 45.5 98 45.5c16.667 0 31.834 -2 45.501 -6s26.5 -8.66699 38.5 -14v57c0 34 -7.83301 60.333 -23.5 79
s-39.167 28 -70.5 28c-17.333 0 -33.666 -2 -48.999 -6s-30.666 -10 -45.999 -18v60c15.333 7.33301 31.333 13 48 17s35 6 55 6c46 0 82.167 -13.667 108.5 -41s39.5 -67 39.5 -119v-374h-63v71c-10.667 -25.333 -24.167 -45 -40.5 -59s-36.5 -21 -60.5 -21zM156.997 45
c12.667 0 24.168 3 34.501 9s19.166 14.333 26.499 25s13 22.667 17 36s6 27.666 6 42.999v101c-11.333 5.33301 -23.166 9.83301 -35.499 13.5s-24.833 5.5 -37.5 5.5c-27.333 0 -48 -10.167 -62 -30.5s-21 -47.5 -21 -81.5v-10c0 -33.333 6.16699 -60.166 18.5 -80.499
s30.166 -30.5 53.499 -30.5zM170.998 590c-24 0 -44.667 9 -62 27s-26 41.333 -26 70v6c0 28.667 8.66699 51.834 26 69.501s38 26.5 62 26.5s44.667 -8.83301 62 -26.5s26 -40.834 26 -69.501v-6c0 -28.667 -8.66699 -52 -26 -70s-38 -27 -62 -27zM170.998 627
c16 0 28 6.16699 36 18.5s12 26.166 12 41.499v5c0 15.333 -4 29.166 -12 41.499s-20 18.5 -36 18.5c-15.333 0 -27.333 -6.16699 -36 -18.5s-13 -26.166 -13 -41.499v-5c0 -15.333 4.33301 -29.166 13 -41.499s20.667 -18.5 36 -18.5z" />
    <glyph glyph-name="ae" unicode="&#xe6;" horiz-adv-x="555" 
d="M143 -9c-36 0 -64.8359 14.9971 -86.5029 44.9971s-32.5 68.667 -32.5 116v10c0 52 11.667 93.167 35 123.5s56 45.5 98 45.5c16.667 0 31.834 -2 45.501 -6s26.5 -8.66699 38.5 -14v57c0 34 -7.83301 60.333 -23.5 79s-39.167 28 -70.5 28
c-17.333 0 -33.666 -2 -48.999 -6s-30.666 -10 -45.999 -18v60c15.333 7.33301 31.333 13 48 17s35 6 55 6c63.333 0 104.666 -27 123.999 -81c12.667 28 28 48.833 46 62.5s37.667 20.5 59 20.5c41.333 0 75.166 -22.333 101.499 -67s39.5 -109 39.5 -193v-40h-227
c0.666992 -31.333 4.33398 -58.666 11.001 -81.999s15.167 -42.666 25.5 -57.999s22.5 -26.666 36.5 -33.999s28.667 -11 44 -11c16.667 0 31.834 2.66699 45.501 8s29.167 13.666 46.5 24.999l6 -60c-19.333 -11.333 -36.5 -19.5 -51.5 -24.5s-33.167 -7.5 -54.5 -7.5
c-30 0 -57.5 9.5 -82.5 28.5s-44.833 47.5 -59.5 85.5c-4.66699 -15.333 -10.667 -30 -18 -44s-16 -26.167 -26 -36.5s-21.5 -18.666 -34.5 -24.999s-27.5 -9.5 -43.5 -9.5zM465.997 287.997c0 28 -2.00195 53.832 -6.00195 77.499s-9.5 43.834 -16.5 60.501
s-15.667 29.667 -26 39s-21.5 14 -33.5 14c-23.333 0 -43.166 -15.667 -59.499 -47s-25.166 -79.333 -26.499 -144h168zM157.995 44.9961c11.333 0 21.998 3.16699 31.998 9.5s19 14.833 27 25.5s14.833 22.834 20.5 36.501s10.167 28.167 13.5 43.5
c-3.33301 16.667 -5.66602 34.667 -6.99902 54s-1.66602 34.666 -0.999023 45.999c-13.333 5.33301 -25.833 9.66602 -37.5 12.999s-24.167 5 -37.5 5c-27.333 0 -48 -10.167 -62 -30.5s-21 -47.5 -21 -81.5v-10c0 -33.333 6.33301 -60.166 19 -80.499
s30.667 -30.5 54 -30.5z" />
    <glyph glyph-name="ccedilla" unicode="&#xe7;" horiz-adv-x="282" 
d="M84 -105l66 104c-34 11.333 -62.5 38 -85.5 80s-34.5 100.667 -34.5 176v16c0 44.667 4.5 83.5 13.5 116.5s21 60.5 36 82.5s32.333 38.333 52 49s40.167 16 61.5 16c14 0 26.167 -1.5 36.5 -4.5s20.166 -7.16699 29.499 -12.5v-66
c-9.33301 7.33301 -19.166 13 -29.499 17s-21.5 6 -33.5 6c-12.667 0 -25.167 -3.83301 -37.5 -11.5s-23.333 -19.834 -33 -36.501s-17.5 -37.667 -23.5 -63s-9 -55.666 -9 -90.999v-20c0 -36 3 -66.667 9 -92s14 -46.166 24 -62.499s21.333 -28.166 34 -35.499
s25.667 -11 39 -11c10.667 0 21 2.16699 31 6.5s19.667 10.166 29 17.499v-63c-10 -6.66699 -20.333 -11.834 -31 -15.501s-22.667 -5.5 -36 -5.5l-46 -122z" />
    <glyph glyph-name="egrave" unicode="&#xe8;" horiz-adv-x="349" 
d="M200 -8c-22.667 0 -44.334 5.5 -65.001 16.5s-38.834 27.333 -54.501 49s-28.167 48.834 -37.5 81.501s-14 70.667 -14 114v14c0 44.667 4 83.834 12 117.501s18.833 61.667 32.5 84s29.5 39.166 47.5 50.499s37 17 57 17c41.333 0 75.166 -22.333 101.499 -67
s39.5 -109 39.5 -193v-40h-228c2 -63.333 14.333 -110 37 -140s49.667 -45 81 -45c16.667 0 31.834 2.66699 45.501 8s29.167 13.666 46.5 24.999l6 -60c-19.333 -11.333 -36.666 -19.5 -51.999 -24.5s-33.666 -7.5 -54.999 -7.5zM259 288c0 28 -2 53.832 -6 77.499
s-9.5 43.834 -16.5 60.501s-15.5 29.667 -25.5 39s-21 14 -33 14c-23.333 0 -43.333 -15.667 -60 -47s-25.667 -79.333 -27 -144h168zM64 702.999l60 32l76 -145h-40z" />
    <glyph glyph-name="eacute" unicode="&#xe9;" horiz-adv-x="349" 
d="M200 -8c-22.667 0 -44.334 5.5 -65.001 16.5s-38.834 27.333 -54.501 49s-28.167 48.834 -37.5 81.501s-14 70.667 -14 114v14c0 44.667 4 83.834 12 117.501s18.833 61.667 32.5 84s29.5 39.166 47.5 50.499s37 17 57 17c41.333 0 75.166 -22.333 101.499 -67
s39.5 -109 39.5 -193v-40h-228c2 -63.333 14.333 -110 37 -140s49.667 -45 81 -45c16.667 0 31.834 2.66699 45.501 8s29.167 13.666 46.5 24.999l6 -60c-19.333 -11.333 -36.666 -19.5 -51.999 -24.5s-33.666 -7.5 -54.999 -7.5zM259 288c0 28 -2 53.832 -6 77.499
s-9.5 43.834 -16.5 60.501s-15.5 29.667 -25.5 39s-21 14 -33 14c-23.333 0 -43.333 -15.667 -60 -47s-25.667 -79.333 -27 -144h168zM227 734.999l60 -32l-97 -113h-40z" />
    <glyph glyph-name="ecircumflex" unicode="&#xea;" horiz-adv-x="349" 
d="M200 -8c-22.667 0 -44.334 5.5 -65.001 16.5s-38.834 27.333 -54.501 49s-28.167 48.834 -37.5 81.501s-14 70.667 -14 114v14c0 44.667 4 83.834 12 117.501s18.833 61.667 32.5 84s29.5 39.166 47.5 50.499s37 17 57 17c41.333 0 75.166 -22.333 101.499 -67
s39.5 -109 39.5 -193v-40h-228c2 -63.333 14.333 -110 37 -140s49.667 -45 81 -45c16.667 0 31.834 2.66699 45.501 8s29.167 13.666 46.5 24.999l6 -60c-19.333 -11.333 -36.666 -19.5 -51.999 -24.5s-33.666 -7.5 -54.999 -7.5zM259 288c0 28 -2 53.832 -6 77.499
s-9.5 43.834 -16.5 60.501s-15.5 29.667 -25.5 39s-21 14 -33 14c-23.333 0 -43.333 -15.667 -60 -47s-25.667 -79.333 -27 -144h168zM149 724.999h51l71 -131h-50l-47 83l-47 -83h-48z" />
    <glyph glyph-name="edieresis" unicode="&#xeb;" horiz-adv-x="349" 
d="M200 -8c-22.667 0 -44.334 5.5 -65.001 16.5s-38.834 27.333 -54.501 49s-28.167 48.834 -37.5 81.501s-14 70.667 -14 114v14c0 44.667 4 83.834 12 117.501s18.833 61.667 32.5 84s29.5 39.166 47.5 50.499s37 17 57 17c41.333 0 75.166 -22.333 101.499 -67
s39.5 -109 39.5 -193v-40h-228c2 -63.333 14.333 -110 37 -140s49.667 -45 81 -45c16.667 0 31.834 2.66699 45.501 8s29.167 13.666 46.5 24.999l6 -60c-19.333 -11.333 -36.666 -19.5 -51.999 -24.5s-33.666 -7.5 -54.999 -7.5zM259 288c0 28 -2 53.832 -6 77.499
s-9.5 43.834 -16.5 60.501s-15.5 29.667 -25.5 39s-21 14 -33 14c-23.333 0 -43.333 -15.667 -60 -47s-25.667 -79.333 -27 -144h168zM209 692.999h62v-79h-62v79zM79 692.999h62v-79h-62v79z" />
    <glyph glyph-name="igrave" unicode="&#xec;" horiz-adv-x="167" 
d="M52 528h63v-528h-63v528zM-23 703l60 32l76 -145h-40z" />
    <glyph glyph-name="iacute" unicode="&#xed;" horiz-adv-x="167" 
d="M52 528h63v-528h-63v528zM128 735l60 -32l-97 -113h-40z" />
    <glyph glyph-name="icircumflex" unicode="&#xee;" horiz-adv-x="167" 
d="M52 528h63v-528h-63v528zM58 725h51l71 -131h-50l-47 83l-47 -83h-48z" />
    <glyph glyph-name="idieresis" unicode="&#xef;" horiz-adv-x="167" 
d="M52 528h63v-528h-63v528zM118 693h62v-79h-62v79zM-12 693h62v-79h-62v79z" />
    <glyph glyph-name="eth" unicode="&#xf0;" horiz-adv-x="359" 
d="M178 -9c-20 0 -38.8301 5.33594 -56.4971 16.0029s-33.334 26.334 -47.001 47.001s-24.334 45.667 -32.001 75s-11.5 63 -11.5 101v11c0 38 3.66699 71.667 11 101s17 54.166 29 74.499s25.667 35.666 41 45.999s31 15.5 47 15.5c12 0 23.167 -3 33.5 -9
s22.166 -15.667 35.499 -29l-61 129l-84 -52l-24 46l86 53l-43 90h63l28 -62l63 39l24 -47l-65 -39l67 -144c14 -31.333 25.167 -63.833 33.5 -97.5s12.5 -70.834 12.5 -111.501v-11c0 -38.667 -4 -73 -12 -103s-19 -55.333 -33 -76s-30 -36.334 -48 -47.001
s-37 -16 -57 -16zM179.003 48.0029c24 0 44.332 15.333 60.999 46s25 76 25 136v11c0 31.333 -2.5 58.5 -7.5 81.5s-11.667 42 -20 57s-17.666 26 -27.999 33s-20.833 10.5 -31.5 10.5c-22 0 -41.5 -15.167 -58.5 -45.5s-25.5 -75.833 -25.5 -136.5v-11
c0 -60 8.16699 -105.333 24.5 -136s36.5 -46 60.5 -46z" />
    <glyph glyph-name="ntilde" unicode="&#xf1;" horiz-adv-x="374" 
d="M48 529h61.999v-74c9.33301 22 22.333 41.333 39 58s38.667 25 66 25c35.333 0 63.333 -14 84 -42s31 -67 31 -117v-378h-62v367c0 37.333 -6.5 65.833 -19.5 85.5s-31.167 29.5 -54.5 29.5s-43.166 -11 -59.499 -33s-24.5 -51.333 -24.5 -88v-361h-62v528zM236.999 589
c-12 0 -21.833 2.33203 -29.5 6.99902s-16.167 11 -25.5 19s-16.5 13.667 -21.5 17s-10.167 5 -15.5 5c-7.33301 0 -13 -3.83301 -17 -11.5s-8.33301 -19.167 -13 -34.5l-38 11c5.33301 28.667 13.666 49.834 24.999 63.501s23.666 20.5 36.999 20.5
c12 0 21.833 -2.33301 29.5 -7s16.167 -10.667 25.5 -18c9.33301 -8 16.5 -13.833 21.5 -17.5s10.167 -5.5 15.5 -5.5c11.333 0 21 15.333 29 46l39 -10c-5.33301 -29.333 -13.666 -50.833 -24.999 -64.5s-23.666 -20.5 -36.999 -20.5z" />
    <glyph glyph-name="ograve" unicode="&#xf2;" horiz-adv-x="366" 
d="M183 -9c-20.667 0 -40.333 6 -59 18s-35 29.333 -49 52s-25 50.334 -33 83.001s-12 70 -12 112v15c0 42 4 79.333 12 112s19 60.334 33 83.001s30.333 40 49 52s38.667 18 60 18c20.667 0 40.334 -6 59.001 -18s35 -29.333 49 -52s25 -50.334 33 -83.001s12 -70 12 -112
v-15c0 -42 -4.16699 -79.333 -12.5 -112s-19.5 -60.334 -33.5 -83.001s-30.333 -40 -49 -52s-38.334 -18 -59.001 -18zM183.001 48c12.667 0 24.5 4.83301 35.5 14.5s20.667 23.5 29 41.5s14.833 39.833 19.5 65.5s7 54.5 7 86.5v16c0 32 -2.33301 60.833 -7 86.5
s-11.167 47.5 -19.5 65.5s-18 31.667 -29 41s-22.833 14 -35.5 14s-24.5 -4.66699 -35.5 -14s-20.667 -23 -29 -41s-14.833 -39.833 -19.5 -65.5s-7 -54.5 -7 -86.5v-16c0 -32 2.33301 -60.833 7 -86.5s11.167 -47.5 19.5 -65.5s18 -31.833 29 -41.5
s22.833 -14.5 35.5 -14.5zM71.001 703l60 32l76 -145h-40z" />
    <glyph glyph-name="oacute" unicode="&#xf3;" horiz-adv-x="366" 
d="M183 -9c-20.667 0 -40.333 6 -59 18s-35 29.333 -49 52s-25 50.334 -33 83.001s-12 70 -12 112v15c0 42 4 79.333 12 112s19 60.334 33 83.001s30.333 40 49 52s38.667 18 60 18c20.667 0 40.334 -6 59.001 -18s35 -29.333 49 -52s25 -50.334 33 -83.001s12 -70 12 -112
v-15c0 -42 -4.16699 -79.333 -12.5 -112s-19.5 -60.334 -33.5 -83.001s-30.333 -40 -49 -52s-38.334 -18 -59.001 -18zM183.001 48c12.667 0 24.5 4.83301 35.5 14.5s20.667 23.5 29 41.5s14.833 39.833 19.5 65.5s7 54.5 7 86.5v16c0 32 -2.33301 60.833 -7 86.5
s-11.167 47.5 -19.5 65.5s-18 31.667 -29 41s-22.833 14 -35.5 14s-24.5 -4.66699 -35.5 -14s-20.667 -23 -29 -41s-14.833 -39.833 -19.5 -65.5s-7 -54.5 -7 -86.5v-16c0 -32 2.33301 -60.833 7 -86.5s11.167 -47.5 19.5 -65.5s18 -31.833 29 -41.5
s22.833 -14.5 35.5 -14.5zM235.001 735l60 -32l-97 -113h-40z" />
    <glyph glyph-name="ocircumflex" unicode="&#xf4;" horiz-adv-x="366" 
d="M183 -9c-20.667 0 -40.333 6 -59 18s-35 29.333 -49 52s-25 50.334 -33 83.001s-12 70 -12 112v15c0 42 4 79.333 12 112s19 60.334 33 83.001s30.333 40 49 52s38.667 18 60 18c20.667 0 40.334 -6 59.001 -18s35 -29.333 49 -52s25 -50.334 33 -83.001s12 -70 12 -112
v-15c0 -42 -4.16699 -79.333 -12.5 -112s-19.5 -60.334 -33.5 -83.001s-30.333 -40 -49 -52s-38.334 -18 -59.001 -18zM183.001 48c12.667 0 24.5 4.83301 35.5 14.5s20.667 23.5 29 41.5s14.833 39.833 19.5 65.5s7 54.5 7 86.5v16c0 32 -2.33301 60.833 -7 86.5
s-11.167 47.5 -19.5 65.5s-18 31.667 -29 41s-22.833 14 -35.5 14s-24.5 -4.66699 -35.5 -14s-20.667 -23 -29 -41s-14.833 -39.833 -19.5 -65.5s-7 -54.5 -7 -86.5v-16c0 -32 2.33301 -60.833 7 -86.5s11.167 -47.5 19.5 -65.5s18 -31.833 29 -41.5
s22.833 -14.5 35.5 -14.5zM157.001 725h51l71 -131h-50l-47 83l-47 -83h-48z" />
    <glyph glyph-name="otilde" unicode="&#xf5;" horiz-adv-x="366" 
d="M183 -9c-20.667 0 -40.333 6 -59 18s-35 29.333 -49 52s-25 50.334 -33 83.001s-12 70 -12 112v15c0 42 4 79.333 12 112s19 60.334 33 83.001s30.333 40 49 52s38.667 18 60 18c20.667 0 40.334 -6 59.001 -18s35 -29.333 49 -52s25 -50.334 33 -83.001s12 -70 12 -112
v-15c0 -42 -4.16699 -79.333 -12.5 -112s-19.5 -60.334 -33.5 -83.001s-30.333 -40 -49 -52s-38.334 -18 -59.001 -18zM183.001 48c12.667 0 24.5 4.83301 35.5 14.5s20.667 23.5 29 41.5s14.833 39.833 19.5 65.5s7 54.5 7 86.5v16c0 32 -2.33301 60.833 -7 86.5
s-11.167 47.5 -19.5 65.5s-18 31.667 -29 41s-22.833 14 -35.5 14s-24.5 -4.66699 -35.5 -14s-20.667 -23 -29 -41s-14.833 -39.833 -19.5 -65.5s-7 -54.5 -7 -86.5v-16c0 -32 2.33301 -60.833 7 -86.5s11.167 -47.5 19.5 -65.5s18 -31.833 29 -41.5
s22.833 -14.5 35.5 -14.5zM233.001 589c-12 0 -21.833 2.33203 -29.5 6.99902s-16.167 11 -25.5 19s-16.5 13.667 -21.5 17s-10.167 5 -15.5 5c-7.33301 0 -13 -3.83301 -17 -11.5s-8.33301 -19.167 -13 -34.5l-38 11c5.33301 28.667 13.666 49.834 24.999 63.501
s23.666 20.5 36.999 20.5c12 0 21.833 -2.33301 29.5 -7s16.167 -10.667 25.5 -18c9.33301 -8 16.5 -13.833 21.5 -17.5s10.167 -5.5 15.5 -5.5c11.333 0 21 15.333 29 46l39 -10c-5.33301 -29.333 -13.666 -50.833 -24.999 -64.5s-23.666 -20.5 -36.999 -20.5z" />
    <glyph glyph-name="odieresis" unicode="&#xf6;" horiz-adv-x="366" 
d="M183 -9c-20.667 0 -40.333 6 -59 18s-35 29.333 -49 52s-25 50.334 -33 83.001s-12 70 -12 112v15c0 42 4 79.333 12 112s19 60.334 33 83.001s30.333 40 49 52s38.667 18 60 18c20.667 0 40.334 -6 59.001 -18s35 -29.333 49 -52s25 -50.334 33 -83.001s12 -70 12 -112
v-15c0 -42 -4.16699 -79.333 -12.5 -112s-19.5 -60.334 -33.5 -83.001s-30.333 -40 -49 -52s-38.334 -18 -59.001 -18zM183.001 48c12.667 0 24.5 4.83301 35.5 14.5s20.667 23.5 29 41.5s14.833 39.833 19.5 65.5s7 54.5 7 86.5v16c0 32 -2.33301 60.833 -7 86.5
s-11.167 47.5 -19.5 65.5s-18 31.667 -29 41s-22.833 14 -35.5 14s-24.5 -4.66699 -35.5 -14s-20.667 -23 -29 -41s-14.833 -39.833 -19.5 -65.5s-7 -54.5 -7 -86.5v-16c0 -32 2.33301 -60.833 7 -86.5s11.167 -47.5 19.5 -65.5s18 -31.833 29 -41.5
s22.833 -14.5 35.5 -14.5zM217.001 693h62v-79h-62v79zM87.001 693h62v-79h-62v79z" />
    <glyph glyph-name="oslash" unicode="&#xf8;" horiz-adv-x="366" 
d="M68 72c-12 22.667 -21.333 49.333 -28 80s-10 65.334 -10 104.001v15c0 42 4 79.333 12 112s19 60.334 33 83.001s30.333 40 49 52s38.667 18 60 18c32.667 0 61.334 -14 86.001 -42l18 37h48l-37 -77c11.333 -22 20.5 -48.333 27.5 -79s10.5 -65.334 10.5 -104.001v-15
c0 -42 -4.16699 -79.333 -12.5 -112s-19.5 -60.334 -33.5 -83.001s-30.333 -40 -49 -52s-38.334 -18 -59.001 -18c-31.333 0 -60 13.667 -86 41l-20 -40h-48zM245 433.999c-16.667 30.667 -37.333 46 -62 46c-26 0 -48.167 -18.5 -66.5 -55.5s-27.5 -87.833 -27.5 -152.5
v-16c0 -43.333 5.33301 -80.333 16 -111zM183.001 46.999c12.667 0 24.833 4.83398 36.5 14.501s21.667 23.5 30 41.5s15 40 20 66s7.5 55 7.5 87v16c0 43.333 -5 79.666 -15 108.999l-140 -290c16 -29.333 36.333 -44 61 -44z" />
    <glyph glyph-name="ugrave" unicode="&#xf9;" horiz-adv-x="374" 
d="M159 -9c-35.333 0 -63.332 14 -83.999 42s-31 67 -31 117v378h62v-367c0 -37.333 6.5 -65.833 19.5 -85.5s31.167 -29.5 54.5 -29.5s43.166 11 59.499 33s24.5 51 24.5 87v362h62v-528h-62v73c-9.33301 -21.333 -22.333 -40.333 -39 -57s-38.667 -25 -66 -25zM74.001 703
l60 32l76 -145h-40z" />
    <glyph glyph-name="uacute" unicode="&#xfa;" horiz-adv-x="374" 
d="M159 -9c-35.333 0 -63.332 14 -83.999 42s-31 67 -31 117v378h62v-367c0 -37.333 6.5 -65.833 19.5 -85.5s31.167 -29.5 54.5 -29.5s43.166 11 59.499 33s24.5 51 24.5 87v362h62v-528h-62v73c-9.33301 -21.333 -22.333 -40.333 -39 -57s-38.667 -25 -66 -25z
M236.001 735l60 -32l-97 -113h-40z" />
    <glyph glyph-name="ucircumflex" unicode="&#xfb;" horiz-adv-x="374" 
d="M159 -9c-35.333 0 -63.332 14 -83.999 42s-31 67 -31 117v378h62v-367c0 -37.333 6.5 -65.833 19.5 -85.5s31.167 -29.5 54.5 -29.5s43.166 11 59.499 33s24.5 51 24.5 87v362h62v-528h-62v73c-9.33301 -21.333 -22.333 -40.333 -39 -57s-38.667 -25 -66 -25z
M159.001 725h51l71 -131h-50l-47 83l-47 -83h-48z" />
    <glyph glyph-name="udieresis" unicode="&#xfc;" horiz-adv-x="374" 
d="M159 -9c-35.333 0 -63.332 14 -83.999 42s-31 67 -31 117v378h62v-367c0 -37.333 6.5 -65.833 19.5 -85.5s31.167 -29.5 54.5 -29.5s43.166 11 59.499 33s24.5 51 24.5 87v362h62v-528h-62v73c-9.33301 -21.333 -22.333 -40.333 -39 -57s-38.667 -25 -66 -25z
M219.001 693h62v-79h-62v79zM89.001 693h62v-79h-62v79z" />
    <glyph glyph-name="yacute" unicode="&#xfd;" horiz-adv-x="350" 
d="M145 9l-123 519h63l90 -412l91 412h62l-156 -658h-61zM211 735l60 -32l-97 -113h-40z" />
    <glyph glyph-name="thorn" unicode="&#xfe;" horiz-adv-x="378" 
d="M48 706l62 0.00195312v-270c4.66699 13.333 10.5 26 17.5 38s14.833 22.667 23.5 32s18.334 16.833 29.001 22.5s22.667 8.5 36 8.5c17.333 0 34 -5.33301 50 -16s30 -26.667 42 -48s21.5 -48.333 28.5 -81s10.5 -71 10.5 -115v-26c0 -43.333 -3.5 -81.333 -10.5 -114
s-16.5 -59.834 -28.5 -81.501s-26 -37.834 -42 -48.501s-32.667 -16 -50 -16c-13.333 0 -25.333 2.83301 -36 8.5s-20.334 13 -29.001 22s-16.5 19.5 -23.5 31.5s-12.833 24.667 -17.5 38v-221h-62v836zM199 49.002c24 0 44.167 17.5 60.5 52.5s24.5 85.5 24.5 151.5v22
c0 66 -8.16699 116.5 -24.5 151.5s-36.5 52.5 -60.5 52.5c-12 0 -23.333 -4.5 -34 -13.5s-20.334 -22 -29.001 -39s-15.5 -38 -20.5 -63s-7.5 -53.5 -7.5 -85.5v-28c0 -32 2.5 -60.5 7.5 -85.5s11.833 -46 20.5 -63s18.334 -30 29.001 -39s22 -13.5 34 -13.5z" />
    <glyph glyph-name="ydieresis" unicode="&#xff;" horiz-adv-x="350" 
d="M145 9l-123 519h63l90 -412l91 412h62l-156 -658h-61zM210 693h62v-79h-62v79zM80 693h62v-79h-62v79z" />
    <glyph glyph-name="dotlessi" unicode="&#x131;" horiz-adv-x="167" 
d="M52 528h63v-528h-63v528z" />
    <glyph glyph-name="Lslash" unicode="&#x141;" horiz-adv-x="296" 
d="M59 313l-49 -16v60l49 16v327h64v-306l95 30v-60l-95 -30v-273h163v-61h-227v313z" />
    <glyph glyph-name="lslash" unicode="&#x142;" horiz-adv-x="217" 
d="M77 324l-66 -24v60l66 24v322h63v-297l67 25v-60l-67 -25v-349h-63v324z" />
    <glyph glyph-name="OE" unicode="&#x152;" horiz-adv-x="558" 
d="M263 0c-34 0 -65.167 7.16699 -93.5 21.5s-52.666 35.833 -72.999 64.5s-36 64.167 -47 106.5s-16.5 91.5 -16.5 147.5v20c0 56 5.5 105.167 16.5 147.5s26.667 77.833 47 106.5s44.666 50.167 72.999 64.5s59.5 21.5 93.5 21.5h266v-61h-182v-256h165v-61h-165v-261h185
v-61h-269zM282 59l-0.00195312 582h-23c-23.333 0 -44.666 -5.66699 -63.999 -17s-36.166 -28.5 -50.499 -51.5s-25.5 -52.167 -33.5 -87.5s-12 -77 -12 -125v-20c0 -48 4.16699 -89.667 12.5 -125s19.666 -64.5 33.999 -87.5s31.333 -40.167 51 -51.5
s40.834 -17 63.501 -17h22z" />
    <glyph glyph-name="oe" unicode="&#x153;" horiz-adv-x="594" 
d="M183 -9c-20.667 0 -40.334 5.99609 -59.001 17.9961s-35 29.333 -49 52s-25 50.334 -33 83.001s-12 70 -12 112v15c0 42 4 79.333 12 112s19 60.334 33 83.001s30.333 40 49 52s38.667 18 60 18c26 0 49.5 -9.66699 70.5 -29s37.833 -47 50.5 -83
c12 38 28.667 66.167 50 84.5s44 27.5 68 27.5c41.333 0 75.166 -22.333 101.499 -67s39.5 -109 39.5 -193v-40h-227c0.666992 -31.333 4.33398 -58.666 11.001 -81.999s15.167 -42.666 25.5 -57.999s22.5 -26.666 36.5 -33.999s28.667 -11 44 -11
c16.667 0 31.834 2.66699 45.501 8s29.167 13.666 46.5 24.999l6 -60c-19.333 -11.333 -36.5 -19.5 -51.5 -24.5s-33.167 -7.5 -54.5 -7.5c-31.333 0 -59.333 10 -84 30s-43.334 48.667 -56.001 86c-12 -38 -28.667 -67 -50 -87s-45.666 -30 -72.999 -30zM504 287.996
c0 28 -2.00098 53.832 -6.00098 77.499s-9.5 43.834 -16.5 60.501s-15.5 29.667 -25.5 39s-21 14 -33 14c-23.333 0 -43.166 -15.667 -59.499 -47s-25.5 -79.333 -27.5 -144h168zM182.999 47.9951c12.667 0 24.5 4.83301 35.5 14.5s20.667 23.5 29 41.5
s14.833 39.833 19.5 65.5s7 54.5 7 86.5v16c0 32 -2.33301 60.833 -7 86.5s-11.167 47.5 -19.5 65.5s-18 31.667 -29 41s-22.833 14 -35.5 14s-24.5 -4.66699 -35.5 -14s-20.667 -23 -29 -41s-14.833 -39.833 -19.5 -65.5s-7 -54.5 -7 -86.5v-16
c0 -32 2.33301 -60.833 7 -86.5s11.167 -47.5 19.5 -65.5s18 -31.833 29 -41.5s22.833 -14.5 35.5 -14.5z" />
    <glyph glyph-name="Scaron" unicode="&#x160;" horiz-adv-x="331" 
d="M152 -9c-21.333 0 -41.833 3 -61.5 9s-39.834 14.667 -60.501 26v71c46.667 -28.667 86.334 -43 119.001 -43c26.667 0 48.167 7.83301 64.5 23.5s24.5 37.834 24.5 66.501v2c0 12.667 -1.33301 24.667 -4 36s-7.33398 23.666 -14.001 36.999s-15.834 28.5 -27.501 45.5
s-26.5 37.167 -44.5 60.5l-56.5 75c-15 20.667 -27 39.5 -36 56.5s-15.333 33 -19 48s-5.5 31.167 -5.5 48.5v2c0 22.667 3.83301 43.5 11.5 62.5s18 35.167 31 48.5s28.5 23.833 46.5 31.5s37 11.5 57 11.5c21.333 0 40.333 -2.5 57 -7.5s33.334 -12.167 50.001 -21.5v-71
c-37.333 24.667 -71.666 37 -102.999 37c-24.667 0 -45 -8 -61 -24s-24 -37 -24 -63v-2c0 -12 1.33301 -23.333 4 -34s7.5 -22.334 14.5 -35.001s16.333 -27 28 -43s26.5 -35.333 44.5 -58c22 -27.333 40.333 -51.333 55 -72s26.5 -40.167 35.5 -58.5s15.5 -36 19.5 -53
s6 -35.167 6 -54.5v-2c0 -23.333 -3.83301 -44.666 -11.5 -63.999s-18.334 -35.833 -32.001 -49.5s-29.667 -24.167 -48 -31.5s-38.166 -11 -59.499 -11zM74 876h49l47 -83l48 83h48l-71 -131h-51z" />
    <glyph glyph-name="scaron" unicode="&#x161;" horiz-adv-x="280" 
d="M129 -7c-19.333 0 -37.5039 2.16699 -54.5039 6.5s-34.167 10.5 -51.5 18.5v63c18.667 -9.33301 36.834 -16.833 54.501 -22.5s34.5 -8.5 50.5 -8.5c19.333 0 35.833 6 49.5 18s20.5 28.667 20.5 50v2c0 16.667 -5.5 34 -16.5 52s-31.167 41 -60.5 69
c-18 16.667 -33.167 32.167 -45.5 46.5s-22.5 28.166 -30.5 41.499s-13.833 26.5 -17.5 39.5s-5.5 26.5 -5.5 40.5v2c0 19.333 3.33301 36.666 10 51.999s15.834 28.333 27.501 39s25.334 18.834 41.001 24.501s32.167 8.5 49.5 8.5s32.666 -1.33301 45.999 -4s27 -7 41 -13
v-63c-28.667 14.667 -57.667 22 -87 22c-19.333 0 -35.166 -5.66699 -47.499 -17s-18.5 -26.666 -18.5 -45.999v-2c0 -8 1.16699 -15.833 3.5 -23.5s6.5 -16 12.5 -25s14 -19.167 24 -30.5s22.667 -24.333 38 -39c18 -18 33.167 -34.333 45.5 -49s22.333 -28.667 30 -42
s13.334 -26.5 17.001 -39.5s5.5 -26.5 5.5 -40.5v-2c0 -20 -3.5 -37.833 -10.5 -53.5s-16.5 -29 -28.5 -40s-26 -19.5 -42 -25.5s-32.667 -9 -50 -9zM45.9961 725h49l47 -83l48 83h48l-71 -131h-51z" />
    <glyph glyph-name="Ydieresis" unicode="&#x178;" horiz-adv-x="360" 
d="M148 295l-142 405h69l106 -321l107 321h66l-141 -405v-295h-65v295zM214 844h62v-79h-62v79zM84 844h62v-79h-62v79z" />
    <glyph glyph-name="Zcaron" unicode="&#x17d;" horiz-adv-x="337" 
d="M28 45l213 597h-203v58h273v-44l-213 -597h213v-59h-283v45zM76 876h49l47 -83l48 83h48l-71 -131h-51z" />
    <glyph glyph-name="zcaron" unicode="&#x17e;" horiz-adv-x="290" 
d="M22 41l178 433h-169v54h236v-41l-177 -433h174v-54h-242v41zM51 725h49l47 -83l48 83h48l-71 -131h-51z" />
    <glyph glyph-name="florin" unicode="&#x192;" horiz-adv-x="326" 
d="M54 -5c-9.33301 0 -17.6699 0.832031 -25.0029 2.49902s-13.666 3.16699 -18.999 4.5v58c4 -1.33301 9.16699 -2.66602 15.5 -3.99902s13.166 -2 20.499 -2c14.667 0 26.334 5.5 35.001 16.5s14.334 28.5 17.001 52.5l24 259h-54v52h58l14 148
c3.33301 40 14.833 70.5 34.5 91.5s45.834 31.5 78.501 31.5c12.667 0 24 -1 34 -3s18.667 -4.33301 26 -7v-61c-15.333 6.66699 -32.333 10 -51 10c-16 0 -29.333 -6 -40 -18s-17 -30.667 -19 -56l-14 -136h94v-52h-98l-25 -265c-4 -43.333 -14.833 -74.5 -32.5 -93.5
s-42.167 -28.5 -73.5 -28.5z" />
    <glyph glyph-name="circumflex" unicode="&#x2c6;" 
d="M224 725h51l71 -131h-50l-47 83l-47 -83h-48z" />
    <glyph glyph-name="caron" unicode="&#x2c7;" 
d="M154 725h49l47 -83l48 83h48l-71 -131h-51z" />
    <glyph glyph-name="breve" unicode="&#x2d8;" 
d="M250 589c-13.333 0 -26.166 2.83301 -38.499 8.5s-23.5 14 -33.5 25s-18 24.5 -24 40.5s-9.33301 34.333 -10 55h48c1.33301 -21.333 7.16602 -40 17.499 -56s23.833 -24 40.5 -24s30.167 8 40.5 24s16.166 34.667 17.499 56h48c-0.666992 -20.667 -4 -39 -10 -55
s-14 -29.5 -24 -40.5s-21.167 -19.333 -33.5 -25s-25.166 -8.5 -38.499 -8.5z" />
    <glyph glyph-name="dotaccent" unicode="&#x2d9;" 
d="M214 691h72v-84h-72v84z" />
    <glyph glyph-name="ring" unicode="&#x2da;" 
d="M250 590c-24 0 -44.667 9 -62 27s-26 41.333 -26 70v6c0 28.667 8.66699 51.834 26 69.501s38 26.5 62 26.5s44.667 -8.83301 62 -26.5s26 -40.834 26 -69.501v-6c0 -28.667 -8.66699 -52 -26 -70s-38 -27 -62 -27zM250 627c16 0 28 6.16699 36 18.5s12 26.166 12 41.499
v5c0 15.333 -4 29.166 -12 41.499s-20 18.5 -36 18.5c-15.333 0 -27.333 -6.16699 -36 -18.5s-13 -26.166 -13 -41.499v-5c0 -15.333 4.33301 -29.166 13 -41.499s20.667 -18.5 36 -18.5z" />
    <glyph glyph-name="ogonek" unicode="&#x2db;" 
d="M342 -135c-51.333 1.33301 -88.833 10.667 -112.5 28s-35.5 39.333 -35.5 66c0 10.667 1.5 20.5 4.5 29.5s6.83301 17.167 11.5 24.5h43c-4 -14 -6 -28.333 -6 -43c0 -17.333 7.33301 -31.833 22 -43.5s39 -19.167 73 -22.5v-39v0z" />
    <glyph glyph-name="tilde" unicode="&#x2dc;" 
d="M299 589c-12 0 -21.833 2.33203 -29.5 6.99902s-16.167 11 -25.5 19s-16.5 13.667 -21.5 17s-10.167 5 -15.5 5c-7.33301 0 -13 -3.83301 -17 -11.5s-8.33301 -19.167 -13 -34.5l-38 11c5.33301 28.667 13.666 49.834 24.999 63.501s23.666 20.5 36.999 20.5
c12 0 21.833 -2.33301 29.5 -7s16.167 -10.667 25.5 -18c9.33301 -8 16.5 -13.833 21.5 -17.5s10.167 -5.5 15.5 -5.5c11.333 0 21 15.333 29 46l39 -10c-5.33301 -29.333 -13.666 -50.833 -24.999 -64.5s-23.666 -20.5 -36.999 -20.5z" />
    <glyph glyph-name="hungarumlaut" unicode="&#x2dd;" 
d="M324 735l60 -32l-97 -113h-40zM194 735l61 -32l-97 -113h-40z" />
    <glyph glyph-name="pi" unicode="&#x3c0;" horiz-adv-x="523" 
d="M261 -10c-36 0 -68.667 8.83301 -98 26.5s-54.166 41.834 -74.499 72.501s-36.166 66.834 -47.499 108.501s-17 86.834 -17 135.501v35c0 48.667 5.66699 94 17 136s27.166 78.333 47.499 109s45.166 54.667 74.499 72s62 26 98 26s68.667 -8.66699 98 -26
s54.333 -41.333 75 -72s36.667 -67 48 -109s17 -87.333 17 -136v-35c0 -48.667 -5.66699 -93.834 -17 -135.501s-27.333 -77.834 -48 -108.501s-45.667 -54.834 -75 -72.501s-62 -26.5 -98 -26.5zM261 18c32.667 0 61.834 8.16699 87.501 24.5s47.5 38.666 65.5 66.999
s31.667 61.666 41 99.999s14 79.5 14 123.5v35c0 44 -4.66699 85.167 -14 123.5s-23 71.666 -41 99.999s-39.833 50.666 -65.5 66.999s-54.834 24.5 -87.501 24.5s-61.834 -8.16699 -87.501 -24.5s-47.5 -38.666 -65.5 -66.999s-31.667 -61.666 -41 -99.999
s-14 -79.5 -14 -123.5v-35c0 -44 4.66699 -85.167 14 -123.5s23 -71.666 41 -99.999s39.833 -50.666 65.5 -66.999s54.834 -24.5 87.501 -24.5zM192 550h54c35.333 0 63.5 -10.667 84.5 -32s31.5 -52.333 31.5 -93v-2c0 -40 -10 -70.833 -30 -92.5s-48 -33.167 -84 -34.5
h-14v-132h-42v386zM255 337c20 0.666992 35.833 8.33203 47.5 22.999s17.5 35.334 17.5 62.001v1c0 27.333 -6 48.5 -18 63.5s-27.667 22.5 -47 22.5h-21v-172h21z" />
    <glyph glyph-name="endash" unicode="&#x2013;" horiz-adv-x="414" 
d="M40 330h334v-61h-334v61z" />
    <glyph glyph-name="emdash" unicode="&#x2014;" horiz-adv-x="604" 
d="M40 330h524v-61h-524v61z" />
    <glyph glyph-name="quoteleft" unicode="&#x2018;" horiz-adv-x="170" 
d="M41 568c0 37.333 7.33301 66.168 22 86.501s39 36.166 73 47.499l11 -32c-24 -8.66699 -40.333 -20.5 -49 -35.5s-12 -32.167 -10 -51.5h36v-100h-83v85z" />
    <glyph glyph-name="quoteright" unicode="&#x2019;" horiz-adv-x="170" 
d="M23 515c24 8.66699 40.332 20.499 48.999 35.499s12.334 32.5 11.001 52.5h-37v97h83v-83c0 -36.667 -7.33301 -65.167 -22 -85.5s-39 -36.166 -73 -47.499z" />
    <glyph glyph-name="quotesinglbase" unicode="&#x201a;" horiz-adv-x="177" 
d="M22 -87c25.333 8.66699 42.667 20.3311 52 34.998s13 32 11 52h-36v97h82v-82c0 -37.333 -7.33301 -66.166 -22 -86.499s-39.667 -36.166 -75 -47.499z" />
    <glyph glyph-name="quotedblleft" unicode="&#x201c;" horiz-adv-x="316" 
d="M188 568c0 37.333 7.16797 66.168 21.501 86.501s38.5 36.166 72.5 47.499l12 -32c-24.667 -8.66699 -41.334 -20.5 -50.001 -35.5s-12 -32.167 -10 -51.5h36v-100h-82v85zM41.001 568.002c0 37.333 7.33301 66.168 22 86.501s39 36.166 73 47.499l11 -32
c-24 -8.66699 -40.333 -20.5 -49 -35.5s-12 -32.167 -10 -51.5h36v-100h-83v85z" />
    <glyph glyph-name="quotedblright" unicode="&#x201d;" horiz-adv-x="316" 
d="M169 515c24 8.66699 40.332 20.499 48.999 35.499s12.334 32.5 11.001 52.5h-37v97h83v-83c0 -36.667 -7.33301 -65.167 -22 -85.5s-39 -36.166 -73 -47.499zM22.999 514.999c24 8.66699 40.332 20.499 48.999 35.499s12.334 32.5 11.001 52.5h-37v97h83v-83
c0 -36.667 -7.33301 -65.167 -22 -85.5s-39 -36.166 -73 -47.499z" />
    <glyph glyph-name="quotedblbase" unicode="&#x201e;" horiz-adv-x="326" 
d="M171 -87c25.333 8.66699 42.667 20.3311 52 34.998s13 32 11 52h-36v97h82v-82c0 -37.333 -7.33301 -66.166 -22 -86.499s-39.667 -36.166 -75 -47.499zM22.001 -87.0029c25.333 8.66699 42.667 20.3311 52 34.998s13 32 11 52h-36v97h82v-82
c0 -37.333 -7.33301 -66.166 -22 -86.499s-39.667 -36.166 -75 -47.499z" />
    <glyph glyph-name="dagger" unicode="&#x2020;" horiz-adv-x="233" 
d="M100 523l-82 -10v53l82 -10l-12 144h58l-12 -144l81 10v-53l-81 10l9 -285h-52z" />
    <glyph glyph-name="daggerdbl" unicode="&#x2021;" horiz-adv-x="255" 
d="M111 144l-82 -10v53l82 -10l-11 173l11 173l-82 -10v53l82 -10l-12 144h58l-12 -144l81 10v-53l-81 10l11 -173l-11 -173l81 10v-53l-81 10l11 -144h-58z" />
    <glyph glyph-name="bullet" unicode="&#x2022;" horiz-adv-x="322" 
d="M161 233c-25.333 0 -46.5 9.5 -63.5 28.5s-25.5 47.5 -25.5 85.5v14c0 38 8.5 66.5 25.5 85.5s38.167 28.5 63.5 28.5c26 0 47.333 -9.5 64 -28.5s25 -47.5 25 -85.5v-14c0 -38 -8.33301 -66.5 -25 -85.5s-38 -28.5 -64 -28.5z" />
    <glyph glyph-name="ellipsis" unicode="&#x2026;" horiz-adv-x="541" 
d="M412 100h84v-100h-84v100zM229 100h84v-100h-84v100zM45 100h84v-100h-84v100z" />
    <glyph glyph-name="perthousand" unicode="&#x2030;" horiz-adv-x="771" 
d="M132 362c-30 0 -55.167 14.333 -75.5 43s-30.5 69.667 -30.5 123v11c0 53.333 10.167 94.333 30.5 123s45.5 43 75.5 43c29.333 0 54.166 -14.333 74.499 -43s30.5 -69.667 30.5 -123v-11c0 -53.333 -10.167 -94.333 -30.5 -123s-45.166 -43 -74.499 -43zM395 700h46
l-317 -700h-46zM639 -5c-29.333 0 -54.166 14.333 -74.499 43s-30.5 69.667 -30.5 123v11c0 53.333 10.167 94.333 30.5 123s45.166 43 74.499 43c30 0 55.167 -14.333 75.5 -43s30.5 -69.667 30.5 -123v-11c0 -53.333 -10.167 -94.333 -30.5 -123s-45.5 -43 -75.5 -43z
M387 -5c-30 0 -55 14.333 -75 43s-30 69.667 -30 123v11c0 53.333 10 94.333 30 123s45 43 75 43s55 -14.333 75 -43s30 -69.667 30 -123v-11c0 -53.333 -10 -94.333 -30 -123s-45 -43 -75 -43zM132 412c16.667 0 30.167 9.83301 40.5 29.5s15.5 48.5 15.5 86.5v11
c0 38 -5.16699 67 -15.5 87s-23.833 30 -40.5 30s-30.167 -10 -40.5 -30s-15.5 -49 -15.5 -87v-11c0 -38 5.16699 -66.833 15.5 -86.5s23.833 -29.5 40.5 -29.5zM639 44c16.667 0 30.167 10 40.5 30s15.5 49 15.5 87v11c0 38 -5.16699 66.833 -15.5 86.5
s-23.833 29.5 -40.5 29.5s-30.167 -9.83301 -40.5 -29.5s-15.5 -48.5 -15.5 -86.5v-11c0 -38 5.16699 -67 15.5 -87s23.833 -30 40.5 -30zM387 44c16.667 0 30.167 10 40.5 30s15.5 49 15.5 87v11c0 38 -5.16699 66.833 -15.5 86.5s-23.833 29.5 -40.5 29.5
s-30.167 -9.83301 -40.5 -29.5s-15.5 -48.5 -15.5 -86.5v-11c0 -38 5.16699 -67 15.5 -87s23.833 -30 40.5 -30z" />
    <glyph glyph-name="guilsinglleft" unicode="&#x2039;" horiz-adv-x="232" 
d="M30 255v8l120 213l51 -28l-110 -188l111 -190l-52 -29z" />
    <glyph glyph-name="guilsinglright" unicode="&#x203a;" horiz-adv-x="232" 
d="M30 70l111 190l-110 188l50 28l121 -213v-8l-121 -214z" />
    <glyph glyph-name="fraction" unicode="&#x2044;" horiz-adv-x="360" 
d="M293 723h58l-294 -755h-58z" />
    <glyph glyph-name="trademark" unicode="&#x2122;" horiz-adv-x="400" 
d="M180 700h47l45 -141l45 141h46v-315h-38v239l-52 -159h-3l-51 159v-239h-39v315zM54 662h-47v38h135v-38h-48v-277h-40v277z" />
    <glyph glyph-name="Omega" unicode="&#x2126;" horiz-adv-x="440" 
d="M286 474l-48.001 0.000976562v54h48v55c0 42 9.5 73.333 28.5 94s46.5 31 82.5 31c5.33301 0 11.333 -0.333008 18 -1s12.334 -1.66699 17.001 -3v-56c-4 1.33301 -8.5 2.16602 -13.5 2.49902s-9.16699 0.5 -12.5 0.5c-38 0 -57 -24.667 -57 -74v-49h79v-54h-79v-474h-63
v474zM65.999 474.001l-48.002 0.000976562v54h48v55c0 42 9.5 73.333 28.5 94s46.5 31 82.5 31c6 0 12.167 -0.333008 18.5 -1s11.833 -1.66699 16.5 -3v-56c-3.33301 1.33301 -7.66602 2.16602 -12.999 2.49902s-9.66602 0.5 -12.999 0.5c-38 0 -57 -24.667 -57 -74v-49h79
v-54h-79v-474h-63v474z" />
    <glyph glyph-name="radical" unicode="&#x221a;" horiz-adv-x="607" 
d="M286 474l-48.001 0.000976562v54h48v55c0 42 9.5 73.333 28.5 94s46.5 31 82.5 31c5.33301 0 11.333 -0.333008 18 -1s12.334 -1.66699 17.001 -3v-56c-4 1.33301 -8.5 2.16602 -13.5 2.49902s-9.16699 0.5 -12.5 0.5c-38 0 -57 -24.667 -57 -74v-49h79v-54h-79v-474h-63
v474zM65.999 474.001l-48.002 0.000976562v54h48v55c0 42 9.5 73.333 28.5 94s46.5 31 82.5 31c6 0 12.167 -0.333008 18.5 -1s11.833 -1.66699 16.5 -3v-56c-3.33301 1.33301 -7.66602 2.16602 -12.999 2.49902s-9.66602 0.5 -12.999 0.5c-38 0 -57 -24.667 -57 -74v-49h79
v-54h-79v-474h-63v474zM491.997 706.002h62v-706h-62v706z" />
    <glyph glyph-name="approxequal" unicode="&#x2248;" horiz-adv-x="607" 
d="M490 706h66v-82h-66v82zM286 474l-48.001 0.000976562v54h48v55c0 42 9.5 73.333 28.5 94s46.5 31 82.5 31c5.33301 0 11.333 -0.333008 18 -1s12.334 -1.66699 17.001 -3v-56c-4 1.33301 -8.5 2.16602 -13.5 2.49902s-9.16699 0.5 -12.5 0.5c-38 0 -57 -24.667 -57 -74
v-49h79v-54h-79v-474h-63v474zM65.999 474.001l-48.002 0.000976562v54h48v55c0 42 9.5 73.333 28.5 94s46.5 31 82.5 31c6 0 12.167 -0.333008 18.5 -1s11.833 -1.66699 16.5 -3v-56c-3.33301 1.33301 -7.66602 2.16602 -12.999 2.49902s-9.66602 0.5 -12.999 0.5
c-38 0 -57 -24.667 -57 -74v-49h79v-54h-79v-474h-63v474zM491.997 528.002h62v-528h-62v528z" />
    <glyph glyph-name="apple" unicode="&#xf8ff;" horiz-adv-x="967" 
d="M101 0v750h767v-750h-767zM853 -104l-3 20l-10 -21h-2l-10 21l-3 -20h-6l6 34h1l13 -26l13 26h1l6 -34h-6zM806 -87c0 -5.33301 -1.49902 -9.66602 -4.49902 -12.999s-7.16699 -5 -12.5 -5s-9.5 1.66699 -12.5 5s-4.5 7.33301 -4.5 12
c0 5.33301 1.66699 9.66602 5 12.999s7.66602 5 12.999 5c4.66699 0 8.5 -1.66699 11.5 -5s4.5 -7.33301 4.5 -12zM757.001 -102c-2 -2 -5.33301 -3 -10 -3c-12 0 -18 5.66699 -18 17c0 5.33301 1.66699 9.66602 5 12.999s7.66602 5 12.999 5c4 0 7.66699 -1 11 -3l-2 -5
c-2 2 -5 3 -9 3c-3.33301 0 -6.16602 -1.16699 -8.49902 -3.5s-3.5 -5.16602 -3.5 -8.49902c0 -8.66699 4.33301 -13 13 -13c2.66699 0 6 1.33301 10 4zM689.001 -90v-14h-6v14l-14 19l6 1l11 -15l9 14h7zM650.001 -104v15h-16v-15h-6v33h6v-13h16v13h6v-33h-6zM612.001 -82
c0 -8 -5.66699 -11.999 -17 -11.999v-10h-6v33c9.33301 1.33301 15.5 0.666016 18.5 -2.00098s4.5 -5.66699 4.5 -9zM570.001 -103.999l-4 8h-14l-3 -8h-6l15 34h2l16 -34h-6zM527.001 -103.999l-8 10.999h-5v-11h-6v33c9.33301 1.33301 15.5 0.833008 18.5 -1.5
s4.5 -5.16602 4.5 -8.49902c0 -4.66699 -2.33301 -8 -7 -10l10 -13h-7zM491.001 -101c-4 -2.66699 -8.33301 -3.99902 -13 -3.99902c-5.33301 0 -9.66602 1.5 -12.999 4.5s-5 7.16699 -5 12.5s1.83301 9.66602 5.5 12.999s8.16699 5 13.5 5c4 0 8 -1.33301 12 -4l-2 -5
c-2.66699 2.66699 -6.33398 4 -11.001 4c-8 0 -12 -4.33301 -12 -13c0 -8 4.33301 -12 13 -12c1.33301 0 3.33301 0.666992 6 2v7h-9v5h15v-15zM447.001 -86.999c0 -5.33301 -1.49902 -9.66602 -4.49902 -12.999s-7.16699 -5 -12.5 -5s-9.5 1.66699 -12.5 5
s-4.5 7.33301 -4.5 12c0 5.33301 1.66699 9.66602 5 12.999s7.66602 5 12.999 5c4.66699 0 8.5 -1.66699 11.5 -5s4.5 -7.33301 4.5 -12zM400.002 -81.999c0 -8 -5.66699 -11.999 -17 -11.999v-10h-6v33c9.33301 1.33301 15.5 0.666016 18.5 -2.00098s4.5 -5.66699 4.5 -9z
M351.002 -89.998v-14h-6v14l-14 19l6 1l11 -15l9 14h7zM323.002 -75.998h-12v-28h-6v28h-12v5h30v-5zM255.002 -104.998h-1l-11 23l-10 -23h-1l-12 34l6 1l7 -23l10 23h1l10 -23l7 22h6zM199.002 -104.998h-1l-11 23l-10 -23h-1l-12 34l6 1l7 -23l10 23h1l10 -23l7 22h6z
M143.002 -104.998h-1l-11 23l-10 -23h-1l-12 34l6 1l7 -23l10 23h1l10 -23l7 22h6zM716.002 -100.998c0 -2.66699 -1.33301 -4 -4 -4s-4 1.33301 -4 4s1.33301 4 4 4s4 -1.33301 4 -4zM284.002 -100.998c0 -2.66699 -1.33301 -4 -4 -4s-4 1.33301 -4 4s1.33301 4 4 4
s4 -1.33301 4 -4zM559.002 690.002c0 1.33301 -0.165039 2.66602 -0.498047 3.99902s-0.5 2.66602 -0.5 3.99902c-1.33301 -0.666992 -7 -1 -17 -1s-16 0.333008 -18 1c0 -1.33301 -0.166992 -2.66602 -0.5 -3.99902s-0.5 -2.66602 -0.5 -3.99902v-4h2
c0.666992 1.33301 1.66699 2.66602 3 3.99902c3.33301 3.33301 5.66602 5 6.99902 5c2 0 3 -1 3 -3v-23c0 -3.33301 -1 -5 -3 -5c-0.666992 -0.666992 -1.33398 -0.666992 -2.00098 0v-2h17v2c-1.33301 -0.666992 -2.33301 -0.666992 -3 0c-1.33301 0 -2 1.66699 -2 5v23
c0 2 1 3 3 3s4.66699 -1.66699 8 -5c1.33301 -1.33301 2 -2.66602 2 -3.99902h2v4zM504.004 664.002c-1.33301 -0.666992 -2.33008 -0.666992 -2.99707 0c-2 0 -3 1.66699 -3 5v21c0 2 1 3.66699 3 5h3v2h-18v-1v-1h2c2 -2 3 -3.66699 3 -5v-9h-17v9
c0 2 0.666992 3.66699 2 5h3v1v1h-17v-2h2c2 -2 3 -3.66699 3 -5v-21c0 -1.33301 -0.333008 -2.16602 -1 -2.49902s-1.33398 -0.833008 -2.00098 -1.5s-1.33398 -1 -2.00098 -1v-2h17v2c-1.33301 0 -2.33301 0.333008 -3 1c-1.33301 1.33301 -2 2.66602 -2 3.99902v10h17
v-10c0 -3.33301 -1 -5 -3 -5c-0.666992 -0.666992 -1.33398 -0.666992 -2.00098 0v-2h18v2zM439.007 664.002c-1.33301 -0.666992 -2.33105 -0.666016 -2.99805 0.000976562c-1.33301 0 -2 1.66699 -2 5v21c0 2 0.666992 3.66699 2 5h3v2h-29l-2 -10l2 -1
c0 1.33301 0.666992 2.66602 2 3.99902c1.33301 2.66699 3.66602 4 6.99902 4h4c2.66699 0 4 -1 4 -3v-10h-4c-2 0 -3.66699 0.666992 -5 2c-0.666992 0.666992 -1 1.66699 -1 3h-2v-13h2c0 0.666992 0.333008 1.66699 1 3c2 2 3.66699 3 5 3h4v-11c0 -2 -1.33301 -3 -4 -3
h-4c-2.66699 0 -5.33398 1.33301 -8.00098 4c-1.33301 1.33301 -2 3 -2 5l-2 -1l2 -11h30v2zM827.009 624.003h-685v-6h685v6zM696.009 540.003c0 10 -3.83301 18.833 -11.5 26.5s-16.167 11.5 -25.5 11.5c-4.66699 0 -9.66699 -1.66699 -15 -5s-8 -9 -8 -17
c0 -10.667 3.83301 -19.667 11.5 -27s16.167 -11 25.5 -11c4.66699 0 9.66699 1.66699 15 5s8 9 8 17zM589.009 537.003c0 8 -4.66895 13.6689 -14.002 17.002c3.33301 2 5 5 5 9c0 3.33301 -1.66699 6.66602 -5 9.99902s-8.66602 5 -15.999 5
c-8.66699 0 -13 -3.66699 -13 -11c0 -4 1.66699 -6 5 -6c2.66699 0 4 1 4 3s-0.5 3.16699 -1.5 3.5s-1.5 1.16602 -1.5 2.49902c0 3.33301 2.33301 5 7 5c6.66699 0 10 -4 10 -12c0 -2.66699 -0.666992 -4.66699 -2 -6c-10.667 1.33301 -16 -0.666992 -16 -6
c0 -4 2.66699 -6 8 -6c4 0 7.66699 1.66699 11 5c4 -3.33301 6 -8.33301 6 -15c0 -9.33301 -4 -14 -12 -14s-12 3 -12 9c0 2 1 3 3 3c0.666992 0 1.33398 -0.333008 2.00098 -1s1.66699 -1 3 -1c2.66699 0 4 1.66699 4 5s-2.33301 5 -7 5c-6 0 -9 -3.33301 -9 -10
c0 -8.66699 5.33301 -13 16 -13c8.66699 0 15 1.83301 19 5.5s6 8.16699 6 13.5zM295.007 537.005c0 8 -4.66895 13.6689 -14.002 17.002c3.33301 2 5 5 5 9c0 3.33301 -1.66699 6.66602 -5 9.99902s-8.66602 5 -15.999 5c-8.66699 0 -13 -3.66699 -13 -11
c0 -4 1.66699 -6 5 -6c2.66699 0 4 1 4 3s-0.5 3.16699 -1.5 3.5s-1.5 1.16602 -1.5 2.49902c0 3.33301 2.33301 5 7 5c6.66699 0 10 -4 10 -12c0 -2.66699 -0.666992 -4.66699 -2 -6c-10.667 1.33301 -16 -0.666992 -16 -6c0 -4 2.66699 -6 8 -6c4 0 7.66699 1.66699 11 5
c4 -3.33301 6 -8.33301 6 -15c0 -9.33301 -4 -14 -12 -14s-12 3 -12 9c0 2 1 3 3 3c0.666992 0 1.33398 -0.333008 2.00098 -1s1.66699 -1 3 -1c2.66699 0 4 1.66699 4 5s-2.33301 5 -7 5c-6 0 -9 -3.33301 -9 -10c0 -8.66699 5.33301 -13 16 -13
c8.66699 0 15 1.83301 19 5.5s6 8.16699 6 13.5zM820.005 522.007c-1.33301 0 -2.66699 0.327148 -4 0.994141s-2.5 1.33398 -3.5 2.00098s-1.83301 2.33398 -2.5 5.00098l-7 35c-0.666992 3.33301 0.333008 5.66602 3 6.99902c1.33301 0.666992 2.66602 1 3.99902 1l-1 3
h-28l1 -3c1.33301 0 2.66602 -0.333008 3.99902 -1c2.66699 -1.33301 4.33398 -3.66602 5.00098 -6.99902l3 -15h-24l-3 15c-0.666992 3.33301 0.333008 5.66602 3 6.99902c1.33301 0.666992 2.66602 1 3.99902 1l-1 3h-29l1 -3c1.33301 0 2.66602 -0.333008 3.99902 -1
c3.33301 -1.33301 5.33301 -3.66602 6 -6.99902l7 -35c0.666992 -3.33301 -0.333008 -5.66602 -3 -6.99902c-1.33301 -0.666992 -2.66602 -1 -3.99902 -1l1 -3h29l-1 3c-1.33301 0 -2.66602 0.333008 -3.99902 1s-2.5 1.33398 -3.5 2.00098s-1.83301 2.33398 -2.5 5.00098
l-3 16h24l3 -16c0.666992 -3.33301 -0.333008 -5.66602 -3 -6.99902c-1.33301 -0.666992 -2.66602 -1 -3.99902 -1l1 -3h29zM497.004 522.001c-1.33301 0 -2.66504 0.331055 -3.99805 0.998047s-2.5 1.33398 -3.5 2.00098s-1.83301 2.33398 -2.5 5.00098l-7 35
c-0.666992 3.33301 0.333008 5.66602 3 6.99902c1.33301 0.666992 2.66602 1 3.99902 1l-1 3h-45v-10v-7h4c-0.666992 2 -0.333984 4 0.999023 6c1.33301 4.66699 5.33301 7 12 7h4c3.33301 0 5.33301 -2 6 -6l3 -16h-4c-3.33301 0 -6.33301 1.33301 -9 4
c-1.33301 1.33301 -2.33301 3 -3 5h-3l5 -23h3c0 1.33301 0.333008 3 1 5c1.33301 4 3.66602 6 6.99902 6h4l3 -17c0.666992 -3.33301 -0.333008 -5.66602 -3 -6.99902c-1.33301 -0.666992 -2.66602 -1 -3.99902 -1l1 -3h29zM202.005 521.999
c-1.33301 0 -2.66797 0.333984 -4.00098 1.00098s-2.5 1.33398 -3.5 2.00098s-1.83301 2.33398 -2.5 5.00098l-7 35c-0.666992 3.33301 0.333008 5.66602 3 6.99902c1.33301 0.666992 2.66602 1 3.99902 1l-1 3h-27c-13.333 0 -20 -5 -20 -15c0 -4 1.83301 -7.33301 5.5 -10
s8.16699 -4.33398 13.5 -5.00098l-9 -16c-1.33301 -2.66699 -2.83301 -4.33398 -4.5 -5.00098s-3.16699 -1.33398 -4.5 -2.00098c-2 -0.666992 -3.66699 -1 -5 -1l1 -3h19l12 23c0.666992 2 2.33398 3 5.00098 3l3 -15c0.666992 -3.33301 -0.333008 -5.66602 -3 -6.99902
c-1.33301 -0.666992 -2.66602 -1 -3.99902 -1l1 -3h29zM400.003 521c0 1.33301 -1.00098 3.00098 -3.00098 5.00098s-5.33301 3.33301 -10 4c-2.66699 2 -4.16699 5.5 -4.5 10.5s-1 10.333 -2 16s-3 10.667 -6 15s-8.5 6.5 -16.5 6.5c-3.33301 0 -6.33301 -1.16699 -9 -3.5
s-4 -4.5 -4 -6.5c0 -3.33301 1.66699 -5 5 -5c2.66699 0 4 2 4 6s1.66699 6 5 6s5.5 -1.66699 6.5 -5s1.83301 -7.33301 2.5 -12s1.83398 -9.5 3.50098 -14.5s4.5 -9.5 8.5 -13.5c-7.33301 0 -12.166 -2.16699 -14.499 -6.5s-5.16602 -6.5 -8.49902 -6.5s-5 1.33301 -5 4
c0 1.33301 0.333008 2.16602 1 2.49902s1 1.16602 1 2.49902c0 3.33301 -1.66699 5 -5 5s-5 -2.33301 -5 -7c0 -3.33301 1.66699 -6.16602 5 -8.49902s6.66602 -3.5 9.99902 -3.5c8.66699 0 13.667 2.16699 15 6.5s4.66602 6.5 9.99902 6.5c2 -4.66699 6 -7 12 -7
c2.66699 0 4 1 4 3zM827.002 481.001h-685v-6h685v6zM827.002 440.001h-147v-62h36v28h11v-65h-14v-33h81v33h-14v65h11v-28h36v62zM648.002 440.001h-81v-34h11l-15 -23l-15 23h10v34h-62v-34h12l37 -46v-19h-14v-33h81v33h-15v20l37 45h14v34zM458.002 341.001h-14v65h14
v34h-96c-14.667 0 -26.167 -3.83301 -34.5 -11.5s-12.5 -17.167 -12.5 -28.5s4.16699 -20.833 12.5 -28.5s19.833 -11.5 34.5 -11.5h30v-19h-15v-33h81v33zM283.002 341.001h-14v65h14v34h-141v-62h41v28h33v-20h-24v-24h24v-21h-33v28h-41v-61h141v33zM827.002 277.001
h-685v-6h685v6zM728.002 192.001c0 10 -3.83301 18.833 -11.5 26.5s-16.167 11.5 -25.5 11.5c-4.66699 0 -9.66699 -1.66699 -15 -5s-8 -9 -8 -17c0 -10.667 3.83301 -19.667 11.5 -27s16.167 -11 25.5 -11c4.66699 0 9.66699 1.66699 15 5s8 9 8 17zM203.002 217.001
c-2 3.33301 -4.17188 6.33398 -6.50488 9.00098s-6.16602 4 -11.499 4c-10 0 -14.667 -7.66699 -14 -23c-2 6.66699 -4.66699 12.167 -8 16.5s-7.66602 6.5 -12.999 6.5c-3.33301 0 -6.16602 -1 -8.49902 -3s-3.5 -5 -3.5 -9l3 -1c0 4 2.66699 6 8 6
c6.66699 0 11.834 -3.5 15.501 -10.5s6.5 -14.5 8.5 -22.5c1.33301 -4.66699 1.66602 -7.83398 0.999023 -9.50098s-1.66699 -3.16699 -3 -4.5s-2.66602 -1.66602 -3.99902 -0.999023l1 -4h28l-1 4c-1.33301 -0.666992 -2.66602 -0.666992 -3.99902 0
c-3.33301 1.33301 -5.33301 4.33301 -6 9c-3.33301 11.333 -5 19.666 -5 24.999c0 8.66699 3 13 9 13c3.33301 0 5.83301 -0.833008 7.5 -2.5l4.5 -4.5zM821.997 174.002c-1.33301 0 -2.66504 0.331055 -3.99805 0.998047s-2.5 1.33398 -3.5 2.00098
s-1.83301 2.33398 -2.5 5.00098l-7 35c-0.666992 3.33301 0.333008 5.66602 3 6.99902c1.33301 0.666992 2.66602 1 3.99902 1l-1 3h-45v-10v-7h4c-0.666992 2 -0.333984 4 0.999023 6c1.33301 4.66699 5.33301 7 12 7h4c3.33301 0 5.33301 -2 6 -6l3 -16h-4
c-3.33301 0 -6.33301 1.33301 -9 4c-1.33301 1.33301 -2.33301 3 -3 5h-3l5 -23h3c0 1.33301 0.333008 3 1 5c1.33301 4 3.66602 6 6.99902 6h4l3 -17c0.666992 -3.33301 -0.333008 -5.66602 -3 -6.99902c-1.33301 -0.666992 -2.66602 -1 -3.99902 -1l1 -3h29zM619.998 228
h-28.998l1 -3c1.33301 0 2.66602 -0.333008 3.99902 -1c3.33301 -1.33301 5.33301 -4 6 -8l5 -21c1.33301 -6.66699 1.66602 -11.667 0.999023 -15s-4.66699 -5 -12 -5c-5.33301 0 -9.66602 2.16699 -12.999 6.5s-5.66602 9.5 -6.99902 15.5l-4 19
c-0.666992 4.66699 0.333008 7.66699 3 9c1.33301 0.666992 2.66602 0.666992 3.99902 0v3h-24l1 -3c1.33301 0 3 -0.333008 5 -1c3.33301 -1.33301 5.33301 -4 6 -8l4 -19c1.33301 -5.33301 4 -11.166 8 -17.499s10.667 -9.5 20 -9.5c11.333 0 17.666 2.66699 18.999 8
s1.33301 10.666 0 15.999l-5 22c-1.33301 2.66699 -1.5 4.66699 -0.5 6s2.16699 2.33301 3.5 3s3 0.666992 5 0zM522 174c-0.666992 0 -1.66602 0.333008 -2.99902 1c-3.33301 1.33301 -5.33301 4.33301 -6 9l-7 32c-0.666992 4 0.333008 6.66699 3 8
c1.33301 0.666992 3 1 5 1l-1 3h-14l-29 -42l-5 30c-0.666992 4 0.333008 6.66699 3 8c1.33301 0.666992 2.66602 1 3.99902 1l-1 3h-21l1 -3c1.33301 0 2.66602 -0.333008 3.99902 -1c2 -1.33301 3.66699 -4 5 -8l8 -45l3 -1l30 44l6 -30
c0.666992 -4.66699 0 -7.66699 -2 -9c-1.33301 -0.666992 -2.66602 -1 -3.99902 -1l1 -3h21zM413.001 175c-1.33301 -0.666992 -2.66699 -0.666992 -4 0c-3.33301 1.33301 -5.33301 4.33301 -6 9l-8 31c-2 6 0.666992 9.33301 8 10l-1 3h-30c-6 0 -11.667 -1.83301 -17 -5.5
s-8 -9.16699 -8 -16.5c0 -10.667 3.66699 -19.167 11 -25.5s15.333 -9.5 24 -9.5h32zM306 174c-1.33301 0 -2.66797 0.333984 -4.00098 1.00098s-2.5 1.33398 -3.5 2.00098s-1.83301 2.33398 -2.5 5.00098l-7 35c-0.666992 3.33301 0.333008 5.66602 3 6.99902
c1.33301 0.666992 2.66602 1 3.99902 1l-1 3h-27c-13.333 0 -20 -5 -20 -15c0 -4 1.83301 -7.33301 5.5 -10s8.16699 -4.33398 13.5 -5.00098l-9 -16c-1.33301 -2.66699 -2.83301 -4.33398 -4.5 -5.00098s-3.16699 -1.33398 -4.5 -2.00098c-2 -0.666992 -3.66699 -1 -5 -1
l1 -3h19l12 23c0.666992 2 2.33398 3 5.00098 3l3 -15c0.666992 -3.33301 -0.333008 -5.66602 -3 -6.99902c-1.33301 -0.666992 -2.66602 -1 -3.99902 -1l1 -3h29zM826.998 133.001h-685v-6h685v6zM693.998 48.001c-1.33301 0 -2.33203 0.333008 -2.99902 1
c-2 0.666992 -3 2 -3 4v20c0 1.33301 1 2.66602 3 3.99902c0.666992 0.666992 1.66699 1.33398 3 2.00098v2h-10l-24 -26v18c0 2 1 3.66699 3 5c0.666992 0.666992 1.66699 1 3 1v2h-15v-2c0.666992 0 1.66699 -0.333008 3 -1c2 -2 3 -3.66699 3 -5v-28h3l25 28v-20
c0 -0.666992 -1 -2 -3 -4c-0.666992 -0.666992 -1.33398 -1 -2.00098 -1v-2h14v2zM632.999 48.001c-1.33301 -0.666992 -2.33105 -0.666016 -2.99805 0.000976562c-1.33301 0 -2 1.66699 -2 5v21c0 2 0.666992 3.66699 2 5h3v2h-29l-2 -10l2 -1
c0 1.33301 0.666992 2.66602 2 3.99902c1.33301 2.66699 3.66602 4 6.99902 4h4c2.66699 0 4 -1 4 -3v-10h-4c-2 0 -3.66699 0.666992 -5 2c-0.666992 0.666992 -1 1.66699 -1 3h-2v-13h2c0 0.666992 0.333008 1.66699 1 3c2 2 3.66699 3 5 3h4v-11c0 -2 -1.33301 -3 -4 -3
h-4c-2.66699 0 -5.33398 1.33301 -8.00098 4c-1.33301 1.33301 -2 3 -2 5l-2 -1l2 -11h30v2zM568.001 81.002l-0.00683594 -2c0.666992 0 1.33398 -0.333008 2.00098 -1s0.666992 -2 0 -4l-9 -19l-5 10l4 8c0.666992 1.33301 1.33398 2.16602 2.00098 2.49902
s1.33398 0.833008 2.00098 1.5l2 2v2h-26l1 -2c0.666992 0 1.33398 -0.333008 2.00098 -1l2 -2l3 -3l3 -5l-7 -13l-8 18c-1.33301 2 -1.33301 3.66699 0 5c0.666992 0.666992 1.33398 1 2.00098 1v2h-13v-2c0.666992 0 1.33398 -0.333008 2.00098 -1
c2 -2 3.33301 -3.66699 4 -5l13 -27h1h1l8 16l9 -16h1l12 27c0.666992 1.33301 1.5 2.33301 2.5 3s1.83301 1.33398 2.5 2.00098s1.33398 1 2.00098 1v2h-15zM479.994 81.002l-15.002 0.00195312v-2c0.666992 0 1.33398 -0.333008 2.00098 -1s0.333984 -2 -0.999023 -4
l-6 -9l-6 9c-1.33301 1.33301 -1.33301 2.66602 0 3.99902c0.666992 0.666992 1.66699 1 3 1v2h-15v-2c0.666992 0 1.66699 -0.333008 3 -1s3 -2 5 -4l8 -12v-8c0 -1.33301 -1 -3 -3 -5c-0.666992 -0.666992 -1.33398 -1 -2.00098 -1v-2h17v2
c-1.33301 0 -2.33301 0.333008 -3 1c-1.33301 1.33301 -2 3 -2 5v8l8 12c0.666992 1.33301 1.5 2.16602 2.5 2.49902s1.83301 0.833008 2.5 1.5s1.33398 1 2.00098 1v2zM424.992 64.0039c0 5.33301 -1.66699 9.66602 -5 12.999s-8.33301 5 -15 5s-11.667 -1.66699 -15 -5
s-5 -7.66602 -5 -12.999s1.66699 -9.83301 5 -13.5s8.33301 -5.5 15 -5.5s11.667 1.83301 15 5.5s5 8.16699 5 13.5zM363.992 48.0039c-1.33301 0 -2.33105 0.332031 -2.99805 0.999023c-1.33301 1.33301 -2 2.66602 -2 3.99902v20c0 2 0.666992 3.66699 2 5
c0.666992 0.666992 1.66699 1 3 1v2h-18c-8.66699 0 -13 -3 -13 -9c0 -3.33301 3 -6.33301 9 -9l-7 -10c-1.33301 -1.33301 -2.5 -2.16602 -3.5 -2.49902s-1.83301 -0.833008 -2.5 -1.5l-2 -1v-2h11l7 12c2 2.66699 4.33301 4 7 4v-9
c0 -1.33301 -0.333008 -2.16602 -1 -2.49902s-1.33398 -0.833008 -2.00098 -1.5s-1.33398 -1 -2.00098 -1v-2h17v2zM308.994 48.0029c-1.33301 0 -2.3291 0.333984 -2.99609 1.00098c-2 0.666992 -3 2.33398 -3 5.00098v20c0 1.33301 1 2.66602 3 3.99902
c0.666992 0.666992 1.66699 1 3 1v2h-18v-2c0.666992 0 1.66699 -0.333008 3 -1c2 -2 3 -3.33301 3 -4v-9c-1.33301 0 -2.66602 0.666992 -3.99902 2l-8 8c-2 0.666992 -2.33301 1.66699 -1 3c0.666992 0.666992 1.33398 1 2.00098 1v2h-14v-2
c0.666992 0 1.66699 -0.333008 3 -1s2.16602 -1.16699 2.49902 -1.5s1.16602 -0.833008 2.49902 -1.5l10 -9l-13 -13c-0.666992 -0.666992 -1.33398 -1.16699 -2.00098 -1.5s-1.33398 -0.833008 -2.00098 -1.5c-1.33301 -0.666992 -2.33301 -1.33398 -3 -2.00098v-2h17v2
c-1.33301 0 -2.33301 0.333008 -3 1s-0.333984 2 0.999023 4l8 8c1.33301 1.33301 2.66602 2 3.99902 2v-9c0 -1.33301 -1 -3 -3 -5c-1.33301 -0.666992 -2.33301 -1 -3 -1v-2h18v2zM605.998 -82.9961c0 5.33301 -3.66699 7.66699 -11 7v-13c7.33301 0 11 2 11 6z
M524.998 -81.9951c0 5.33301 -3.66699 7.33301 -11 6v-12c7.33301 -0.666992 11 1.33301 11 6zM393.998 -82.9951c0 5.33301 -3.66699 7.66699 -11 7v-13c7.33301 0 11 2 11 6zM558.998 -79.9941l-5 -12h10zM799.998 -87.9941c0 8.66699 -3.66699 13 -11 13s-11 -4 -11 -12
c0 -8.66699 3.66699 -13 11 -13s11 4 11 12zM440.998 -87.9941c0 8.66699 -3.66699 13 -11 13s-11 -4 -11 -12c0 -8.66699 3.66699 -13 11 -13s11 4 11 12zM170.998 548.006c-5.33301 0 -9.16699 1.66797 -11.5 5.00098s-3.5 6.66602 -3.5 9.99902c0 6 2.66699 9 8 9
s8.33301 -1.66699 9 -5l3 -19h-5zM565.997 553.007c-2 -2.66699 -4.33203 -4 -6.99902 -4s-4 0.666992 -4 2c0 2 1.33301 3 4 3c3.33301 0 5.66602 -0.333008 6.99902 -1zM271.998 553.007c-2 -2.66699 -4.33203 -4 -6.99902 -4s-4 0.666992 -4 2c0 2 1.33301 3 4 3
c3.33301 0 5.66602 -0.333008 6.99902 -1zM683.999 535.007c0 -8.66699 -3.66699 -12.999 -11 -12.999c-6 0 -11.667 3.83301 -17 11.5s-8 16.5 -8 26.5c0 9.33301 3.66699 14 11 14c6 0 11.667 -3.83301 17 -11.5s8 -16.834 8 -27.501zM380.999 384.008
c-8.66699 0 -13 3.66699 -13 11s4.33301 11 13 11h11v-22h-11zM274.999 200.008c-5.33301 0 -9.16699 1.66797 -11.5 5.00098s-3.5 6.66602 -3.5 9.99902c0 6 2.66699 9 8 9s8.33301 -1.66699 9 -5l3 -19h-5zM715.998 187.009c0 -8.66699 -3.66699 -12.999 -11 -12.999
c-6 0 -11.667 3.83301 -17 11.5s-8 16.5 -8 26.5c0 9.33301 3.66699 14 11 14c6 0 11.667 -3.83301 17 -11.5s8 -16.834 8 -27.501zM392.998 182.01c0 -4.66699 -1.33203 -7.00098 -3.99902 -7.00098h-5c-7.33301 0 -13.5 3.33301 -18.5 10s-7.5 14 -7.5 22
c0 11.333 4.66699 17 14 17h6c2 -0.666992 3.16699 -1.16699 3.5 -1.5s1.16602 -2.16602 2.49902 -5.49902zM552.999 79.0088c2.66699 0 2.66699 -3 0 -9c-3.33301 6 -3.33301 9 0 9zM348.999 64.0088c-5.33301 0 -8 2.66699 -8 8c0 4 2.33301 6 7 6
c2.66699 0 4 -1.33301 4 -4v-10h-3zM416.999 64.0088c0 -4.66699 -0.832031 -8.66699 -2.49902 -12s-4.83398 -5 -9.50098 -5c-4 0 -7 1.66699 -9 5s-3 7.33301 -3 12c0 10.667 4 16 12 16s12 -5.33301 12 -16z" />
    <glyph glyph-name="fi" unicode="&#xfb01;" horiz-adv-x="388" 
d="M271 706h66v-82h-66v82zM66 474l-48.002 0.000976562v54h48v55c0 42 9.5 73.333 28.5 94s46.5 31 82.5 31c6 0 12.167 -0.333008 18.5 -1s11.833 -1.66699 16.5 -3v-56c-3.33301 1.33301 -7.66602 2.16602 -12.999 2.49902s-9.66602 0.5 -12.999 0.5
c-38 0 -57 -24.667 -57 -74v-49h79v-54h-79v-474h-63v474zM272.998 528.001h63v-528h-63v528z" />
    <glyph glyph-name="fl" unicode="&#xfb02;" horiz-adv-x="388" 
d="M66 474l-48.002 0.000976562v54h48v55c0 42 9.5 73.333 28.5 94s46.5 31 82.5 31c6 0 12.167 -0.333008 18.5 -1s11.833 -1.66699 16.5 -3v-56c-3.33301 1.33301 -7.66602 2.16602 -12.999 2.49902s-9.66602 0.5 -12.999 0.5c-38 0 -57 -24.667 -57 -74v-49h79v-54h-79
v-474h-63v474zM272.998 706.001h63v-706h-63v706z" />
  </font>
</defs>
</svg>
